<svg xmlns="http://www.w3.org/2000/svg" viewBox="0 0 3000 3000" width="3000" height="3000"><g transform="translate(434.4 1191.6) rotate(0.0 161.39999999999998 211.80000000000007) scale(1.4288117137773213 1.430283794506441)"><svg width="225.922" height="296.165" viewBox="0 0 225.922 296.165"><path d="M207.613 4.737a18.896 18.896 0 0 0-20.769-1.183l-170.06 98.854c-5.801 2.739-9.719 7.788-12.2 13.665-2.656 6.291-3.666 13.53-3.579 19.899L2.96 276.429c.064 4.128 2.328 7.472 5.466 9.272 2.675 1.518 15.239 6.751 19.187 8.385-3.511-1.672-6.121-5.195-6.186-9.632l-1.955-140.456a33.861 33.861 0 0 1 3.596-15.659 33.832 33.832 0 0 1 13.469-14.214l174.702-99.896c3.151-1.8 6.687-1.492 9.375.193z" fill="#fff"/><path d="M27.612 295.086a.993.993 0 0 1-.382-.076c-3.832-1.585-16.549-6.879-19.298-8.439-3.675-2.109-5.906-5.893-5.972-10.126L.005 135.987c-.099-7.271 1.2-14.481 3.658-20.302 2.864-6.785 7.135-11.556 12.694-14.181L186.341 2.69a19.88 19.88 0 0 1 21.868 1.245h.001l13.001 9.684a1 1 0 0 1-1.128 1.649c-2.583-1.619-5.703-1.683-8.348-.172L37.033 114.992a32.759 32.759 0 0 0-13.071 13.794 33.021 33.021 0 0 0-3.49 15.198l1.955 140.456a9.783 9.783 0 0 0 5.615 8.743 1 1 0 0 1-.43 1.903zM196.329 1.997c-3.091 0-6.192.801-8.983 2.422l-170.06 98.854c-5.176 2.448-9.114 6.872-11.781 13.19-2.353 5.572-3.596 12.496-3.501 19.496L3.96 276.415a9.798 9.798 0 0 0 4.963 8.418c1.608.912 7.331 3.406 13.444 5.98a11.814 11.814 0 0 1-1.94-6.345l-1.955-140.457a35.036 35.036 0 0 1 3.703-16.122 34.744 34.744 0 0 1 13.867-14.634L210.743 13.36a10.127 10.127 0 0 1 4.95-1.358l-8.677-6.462a17.89 17.89 0 0 0-10.687-3.543z"/><path d="m144.17 220.232 18.863 21.458 19.542 9.859-24.907-38.758z" fill="#fff"/><path d="M182.574 252.549a.999.999 0 0 1-.45-.107l-19.542-9.859a1.003 1.003 0 0 1-.301-.233l-18.862-21.458a1.001 1.001 0 0 1 .268-1.536l13.498-7.441a1 1 0 0 1 1.324.335l24.906 38.758a1 1 0 0 1-.841 1.541zm-18.918-11.664 16.095 8.12-22.418-34.886-11.589 6.389z"/><path d="m211.242 14.234-174.704 99.89a33.859 33.859 0 0 0-17.065 29.875l1.96 140.455c.116 8.293 9.118 13.394 16.292 9.23l119.866-69.581 24.997 27.105.289-41.783 21.725-12.611a40.807 40.807 0 0 0 20.319-35.661l.001-138.982c0-7.021-7.586-11.422-13.68-7.937z" fill="#87c159"/><path d="M32.28 296.167c-2.004 0-4.009-.519-5.841-1.557-3.702-2.097-5.947-5.889-6.006-10.143l-1.96-140.455a34.867 34.867 0 0 1 17.569-30.757l174.703-99.89c3.176-1.815 6.96-1.804 10.124.032 3.164 1.835 5.053 5.115 5.053 8.773l-.001 138.982c.136 14.994-7.841 28.994-20.817 36.526l-21.231 12.324-.285 41.212a1 1 0 0 1-1.735.671L157.4 225.37 38.227 294.549a11.826 11.826 0 0 1-5.947 1.618zM211.738 15.102 37.034 114.993a32.866 32.866 0 0 0-16.561 28.993l1.96 140.455c.049 3.536 1.916 6.687 4.992 8.43s6.739 1.723 9.798-.051l119.866-69.581a.998.998 0 0 1 1.237.187l23.279 25.242.271-39.25a1 1 0 0 1 .498-.858l21.725-12.611c12.355-7.172 19.95-20.502 19.821-34.787l.001-138.991a8.061 8.061 0 0 0-4.056-7.043 8.056 8.056 0 0 0-8.127-.026z"/><path d="m127.146 188.715 4.755 10.477 14.525 8.424-4.745-10.478z" fill="#fff"/><path d="M146.425 208.616a.992.992 0 0 1-.501-.135l-14.524-8.424a.996.996 0 0 1-.409-.452l-4.755-10.477a1 1 0 0 1 1.413-1.279l14.535 8.423c.18.104.323.263.409.453l4.744 10.478a1 1 0 0 1-.912 1.413zm-13.745-10.129 11.548 6.698-3.325-7.343-11.554-6.696z"/><path d="M98.466 198.864 93.71 214.89l14.529 8.462 4.767-16.038z" fill="#fff"/><path d="M108.239 224.352a1 1 0 0 1-.503-.136l-14.53-8.462a1 1 0 0 1-.456-1.149l4.756-16.027a1 1 0 0 1 1.461-.58l14.54 8.451a1 1 0 0 1 .456 1.149l-4.767 16.038a1 1 0 0 1-.957.716zm-13.347-9.931 12.751 7.426 4.18-14.064-12.76-7.416z"/><path d="m82.052 180.326-11.579 12.212 14.558 8.47 11.583-12.226z" fill="#fff"/><path d="M85.031 202.008a.99.99 0 0 1-.502-.136l-14.558-8.47a1 1 0 0 1-.223-1.552l11.579-12.212a1 1 0 0 1 1.228-.177l14.562 8.455a.996.996 0 0 1 .224 1.552l-11.583 12.227a1 1 0 0 1-.727.313zm-12.963-9.699 12.781 7.437 10.169-10.734-12.785-7.424z"/><path d="M81.999 162.85c-.908 5.776-1.071 11.718.053 17.476l14.562 8.455c-1.119-5.761-.952-11.707-.039-17.484z" fill="#fff"/><path d="M96.614 189.782c-.173 0-.346-.045-.502-.135l-14.562-8.455a1 1 0 0 1-.479-.673c-1.052-5.388-1.072-11.385-.06-17.823a.999.999 0 0 1 1.49-.71l14.576 8.447a1 1 0 0 1 .486 1.021c-.981 6.209-.97 11.975.033 17.137a1.002 1.002 0 0 1-.982 1.191zM82.95 179.691l12.328 7.158c-.652-4.633-.584-9.675.205-15.029l-12.708-7.365c-.732 5.482-.674 10.598.175 15.236z"/><path d="m87.62 143.863-11.613 1.133L90.6 153.44l11.609-1.143z" fill="#fff"/><path d="M90.6 154.44a.996.996 0 0 1-.501-.135l-14.593-8.444a1.001 1.001 0 0 1 .403-1.861l11.613-1.133a.999.999 0 0 1 .598.13l14.588 8.434a1 1 0 0 1-.402 1.861l-11.609 1.143a1.05 1.05 0 0 1-.097.005zm-11.398-8.751 11.621 6.724 8.194-.807-11.618-6.717z"/><path d="M98.354 125.289a92.43 92.43 0 0 0-10.734 18.574l14.589 8.434a92.634 92.634 0 0 1 10.744-18.592z" fill="#fff"/><path d="M102.209 153.297a.994.994 0 0 1-.5-.134l-14.588-8.434a1 1 0 0 1-.418-1.262 93.47 93.47 0 0 1 10.85-18.776 1 1 0 0 1 1.302-.269l14.598 8.417a1.002 1.002 0 0 1 .303 1.464 91.71 91.71 0 0 0-10.628 18.391.998.998 0 0 1-.919.603zm-13.315-9.852 12.847 7.427a93.682 93.682 0 0 1 9.743-16.858l-12.856-7.412a91.537 91.537 0 0 0-9.734 16.843z"/><path d="m93.526 114.658 4.828 10.631 14.598 8.417-4.817-10.633z" fill="#fff"/><path d="M112.952 134.706a.994.994 0 0 1-.499-.134l-14.598-8.417a.992.992 0 0 1-.411-.453l-4.828-10.631a1 1 0 0 1 1.409-1.28l14.609 8.416c.181.104.325.263.412.454l4.817 10.632a.999.999 0 0 1-.911 1.413zm-13.82-10.123 11.627 6.704-3.401-7.507-11.634-6.702z"/><path d="m131.933 86.092-4.78 16.119 14.604 8.384 4.79-16.13z" fill="#fff"/><path d="M141.757 111.595c-.173 0-.344-.045-.498-.133l-14.604-8.384a1 1 0 0 1-.461-1.151l4.779-16.119a1 1 0 0 1 1.456-.583l14.614 8.372a1 1 0 0 1 .462 1.152l-4.79 16.131a1 1 0 0 1-.958.715zm-13.42-9.857 12.821 7.36 4.205-14.16-12.831-7.35z"/><path d="M127.153 102.211c-5.552 1.907-10.616 5.038-15.167 8.714l14.604 8.399c4.551-3.679 9.614-6.817 15.167-8.729z" fill="#fff"/><path d="M126.59 120.324a1 1 0 0 1-.498-.133l-14.604-8.399a1 1 0 0 1-.129-1.645c5.101-4.119 10.306-7.107 15.47-8.881.273-.093.573-.065.823.079l14.604 8.384a1 1 0 0 1-.172 1.813c-4.941 1.702-9.942 4.582-14.864 8.561a1.012 1.012 0 0 1-.63.221zm-12.824-9.529 12.732 7.323c4.267-3.379 8.601-5.966 12.918-7.713l-12.364-7.098c-4.419 1.577-8.881 4.092-13.286 7.488z"/><path d="m162.906 95.034-11.51 12.146 14.588 8.367 11.515-12.16z" fill="#fff"/><path d="M165.984 116.547a.991.991 0 0 1-.497-.133l-14.588-8.367a1.001 1.001 0 0 1-.228-1.555l11.51-12.146a1.002 1.002 0 0 1 1.223-.18l14.593 8.352a1 1 0 0 1 .229 1.555l-11.515 12.16a.996.996 0 0 1-.727.314zm-12.988-9.602 12.803 7.343 10.099-10.665-12.807-7.33z"/><path d="m162.789 154.816 5.62-18.856 14.557 8.366-5.632 18.869z" fill="#fff"/><path d="M177.334 164.195a.996.996 0 0 1-.499-.134l-14.545-8.379a1 1 0 0 1-.459-1.152l5.619-18.856a.998.998 0 0 1 1.457-.581l14.558 8.366a1 1 0 0 1 .46 1.153l-5.632 18.869a.998.998 0 0 1-.959.714zm-13.361-9.851 12.764 7.354 5.044-16.899-12.776-7.342z"/><path d="m177.334 163.195 5.632-18.869-11.445 1.127c.928-5.761 1.117-11.692.037-17.446l11.495-12.143-5.554-12.478-11.515 12.161a18.613 18.613 0 0 0-10.648-6.251l4.797-16.107-13.587 1.275-4.79 16.13c-5.553 1.913-10.616 5.05-15.167 8.729l-4.802-10.641-13.653 14.39 4.817 10.632a92.654 92.654 0 0 0-10.744 18.592L90.6 153.44l-5.632 19.018 11.607-1.161c-.913 5.777-1.08 11.723.039 17.484l-11.583 12.227 5.687 12.403 11.565-12.222a18.6 18.6 0 0 0 10.723 6.125l-4.767 16.038 13.582-1.43 4.767-16.013c5.527-1.941 10.563-5.092 15.094-8.771l4.744 10.478 13.527-14.311-4.737-10.487a92.82 92.82 0 0 0 10.674-18.477l11.444-1.146z"/><path d="M108.239 224.352a1 1 0 0 1-.958-1.285l4.458-15.001a19.752 19.752 0 0 1-9.467-5.411l-10.828 11.444a.998.998 0 0 1-1.635-.271l-5.687-12.403a.999.999 0 0 1 .183-1.104l11.232-11.856c-.887-4.899-.934-10.287-.14-16.044l-10.33 1.033a1 1 0 0 1-1.058-1.279l5.632-19.018a1 1 0 0 1 .861-.711l11.024-1.085a93.748 93.748 0 0 1 10.273-17.776l-4.574-10.097a1 1 0 0 1 .186-1.101l13.653-14.389a1 1 0 0 1 1.637.277l4.274 9.471c4.617-3.588 9.309-6.25 13.97-7.923l4.645-15.641a1 1 0 0 1 .865-.711l13.587-1.275a.998.998 0 0 1 1.052 1.281l-4.492 15.082a19.754 19.754 0 0 1 9.403 5.516l10.77-11.374a1.001 1.001 0 0 1 1.64.281l5.554 12.478c.164.369.09.801-.187 1.094l-11.147 11.775c.855 4.895.878 10.271.069 16.005l10.166-1.001a1 1 0 0 1 1.057 1.281l-5.632 18.869a.999.999 0 0 1-.859.709l-10.862 1.088a93.808 93.808 0 0 1-10.204 17.663l4.496 9.953a1 1 0 0 1-.185 1.099l-13.527 14.311a1 1 0 0 1-1.638-.275l-4.215-9.309c-4.599 3.592-9.267 6.265-13.898 7.96l-4.622 15.528a1 1 0 0 1-.854.709l-13.582 1.43-.106.003zm-5.956-24.163h.021c.282.006.549.131.734.344a17.714 17.714 0 0 0 10.148 5.797 1.001 1.001 0 0 1 .778 1.269l-4.34 14.601 11.428-1.203 4.576-15.374c.092-.307.325-.552.627-.658 4.912-1.726 9.889-4.62 14.795-8.604a1.002 1.002 0 0 1 1.541.364l4.13 9.121 12.043-12.741-4.461-9.875a1 1 0 0 1 .109-1.008 91.819 91.819 0 0 0 10.559-18.278 1 1 0 0 1 .818-.598l10.778-1.079 5.014-16.8-9.962.981a1.003 1.003 0 0 1-1.086-1.154c.996-6.186 1.01-11.94.042-17.103a.999.999 0 0 1 .257-.872l11.036-11.658-4.674-10.5-10.484 11.072a1 1 0 0 1-1.488-.041 17.724 17.724 0 0 0-10.077-5.916.998.998 0 0 1-.767-1.267l4.375-14.688-11.439 1.074-4.598 15.483a1 1 0 0 1-.633.661c-4.941 1.702-9.942 4.582-14.864 8.561a.998.998 0 0 1-1.54-.367l-4.19-9.284-12.165 12.822 4.539 10.02c.15.331.108.718-.109 1.01a91.71 91.71 0 0 0-10.628 18.391 1 1 0 0 1-.82.599l-10.939 1.077-5.018 16.946 10.126-1.013a1.001 1.001 0 0 1 1.088 1.151c-.981 6.209-.97 11.975.033 17.137a.998.998 0 0 1-.256.878l-11.118 11.736 4.788 10.443 10.547-11.146c.189-.198.452-.311.726-.311zm75.051-36.994h.01z"/><path d="m70.473 192.538 5.7 12.403 14.545 8.471-5.687-12.404z" fill="#fff"/><path d="M90.718 214.412a1 1 0 0 1-.503-.136l-14.545-8.471a1.004 1.004 0 0 1-.406-.447l-5.699-12.402a1.001 1.001 0 0 1 1.411-1.282l14.558 8.47c.178.104.32.26.406.448l5.687 12.403a.998.998 0 0 1-.909 1.417zm-13.769-10.176 11.544 6.723-4.239-9.246-11.553-6.722z"/><path d="m76.007 144.996-5.62 19.005 14.581 8.457L90.6 153.44z" fill="#fff"/><path d="M84.968 173.458a.998.998 0 0 1-.502-.135l-14.58-8.457a1 1 0 0 1-.457-1.148l5.619-19.005a1.002 1.002 0 0 1 1.46-.583l14.593 8.444a1 1 0 0 1 .458 1.149l-5.632 19.018a.998.998 0 0 1-.959.717zm-13.399-9.927 12.801 7.425 5.047-17.044-12.812-7.413z"/><path d="m107.174 100.285-13.648 14.373 14.609 8.415 13.653-14.389z" fill="#fff"/><path d="M108.135 124.073a.997.997 0 0 1-.499-.134l-14.609-8.416a1 1 0 0 1-.226-1.555l13.647-14.372a.999.999 0 0 1 1.223-.178l14.614 8.398a.999.999 0 0 1 .227 1.555l-13.653 14.389a.989.989 0 0 1-.724.313zm-13.009-9.648 12.826 7.388 12.236-12.896-12.83-7.373z"/><path d="m145.525 84.828-13.592 1.264 14.614 8.373 13.587-1.276z" fill="#fff"/><path d="M146.547 95.464a1 1 0 0 1-.497-.132l-14.614-8.372a1 1 0 0 1 .405-1.863l13.592-1.264a1 1 0 0 1 .589.128l14.609 8.361a.999.999 0 0 1-.404 1.863L146.64 95.46a.964.964 0 0 1-.093.004zm-11.376-8.669 11.597 6.644 10.127-.951-11.594-6.635z"/><path d="M133.696 178.95c7.427-4.108 12.893-11.772 15.847-19.592 2.45-6.485 4.517-17.534-2.319-22.271-7.151-4.955-16.349 2.26-20.912 7.5-5.517 6.335-9.666 14.912-9.814 23.428-.177 10.249 7.866 16.089 17.198 10.935z" fill="#87c159"/><path d="M126.94 181.847c-2.002 0-3.896-.5-5.565-1.503-3.774-2.271-5.97-6.886-5.876-12.346.141-8.115 3.807-16.887 10.059-24.067 5.781-6.638 15.074-12.629 22.236-7.665 6.745 4.674 5.809 15.176 2.684 23.446-3.369 8.917-9.31 16.248-16.299 20.114h-.001c-2.434 1.344-4.909 2.021-7.238 2.021zm14.933-45.435c-6.873 0-13.866 7.753-14.806 8.832-5.948 6.83-9.435 15.136-9.568 22.788-.082 4.737 1.752 8.698 4.907 10.597 3.025 1.82 6.863 1.623 10.806-.554 6.58-3.64 12.192-10.591 15.395-19.071.987-2.613 5.533-15.908-1.952-21.095a8.217 8.217 0 0 0-4.782-1.497zm-8.177 42.538h.01z"/></svg></g><g transform="translate(2222.4 193.2) rotate(0.0 273.5999999999999 685.8) scale(1.4281985697134203 1.425689223448409)"><svg width="383.14" height="962.061" viewBox="0 0 383.14 962.061"><path d="M81.497 56.869h-.006a1.001 1.001 0 0 1-.994-1.006L80.849.994a1.001 1.001 0 0 1 2 .012l-.352 54.869a1 1 0 0 1-1 .994zM152.8 96.514c-3.699 0-7.609-2.356-11.2-6.8-4.046-5.008-7.257-12.132-9.042-20.059s-1.937-15.74-.428-21.999c1.567-6.503 4.759-10.608 8.987-11.56 4.227-.953 8.87 1.389 13.074 6.592 4.046 5.008 7.257 12.132 9.042 20.059 3.801 16.881.042 31.622-8.559 33.559a8.503 8.503 0 0 1-1.874.208zm-9.809-58.625c-.486 0-.965.052-1.435.158-3.445.776-6.103 4.354-7.482 10.077-1.438 5.967-1.284 13.457.435 21.091s4.79 14.468 8.647 19.242c3.7 4.579 7.637 6.675 11.079 5.898 7.256-1.634 10.484-15.907 7.047-31.168-1.719-7.634-4.79-14.468-8.647-19.242-3.195-3.954-6.565-6.056-9.644-6.056zm88.603 102.503c-3.699 0-7.609-2.356-11.2-6.8-4.046-5.008-7.257-12.132-9.042-20.059-3.801-16.882-.042-31.622 8.559-33.559 8.599-1.937 18.315 9.771 22.117 26.652 3.801 16.881.042 31.622-8.559 33.559a8.571 8.571 0 0 1-1.875.207zm-9.84-58.621c-.474 0-.942.051-1.404.155-7.256 1.634-10.484 15.907-7.047 31.168 1.719 7.634 4.79 14.468 8.647 19.242 3.7 4.579 7.636 6.675 11.08 5.898 7.256-1.634 10.483-15.907 7.047-31.168-3.218-14.292-11.344-25.295-18.323-25.295zM149.162 218.43h-.006a1.001 1.001 0 0 1-.994-1.006l.353-54.869c.003-.552.437-.953 1.006-.994.552.004.997.454.994 1.006l-.353 54.869c-.004.55-.451.994-1 .994zm78.643 44.95h-.006a1.001 1.001 0 0 1-.994-1.006l.353-54.869c.004-.552.487-.975 1.006-.994.552.004.997.454.994 1.006l-.353 54.869a1 1 0 0 1-1 .994zm82.574 46.81c-3.699 0-7.609-2.356-11.2-6.8-4.046-5.008-7.257-12.132-9.042-20.059-3.801-16.882-.042-31.622 8.559-33.559 8.6-1.936 18.315 9.77 22.117 26.652s.042 31.622-8.559 33.559a8.571 8.571 0 0 1-1.875.207zm-9.84-58.622c-.474 0-.942.051-1.404.155-7.256 1.634-10.484 15.907-7.047 31.168 1.719 7.634 4.79 14.468 8.647 19.242 3.7 4.579 7.634 6.672 11.079 5.898 7.256-1.634 10.484-15.907 7.047-31.168-3.217-14.291-11.343-25.295-18.322-25.295zm-149.692 90.711c-3.699 0-7.609-2.356-11.199-6.8-4.046-5.008-7.257-12.132-9.042-20.059-3.801-16.881-.042-31.622 8.559-33.559 4.225-.953 8.871 1.389 13.074 6.592 4.046 5.008 7.257 12.132 9.042 20.059s1.937 15.74.428 21.999c-1.567 6.503-4.759 10.608-8.987 11.56a8.518 8.518 0 0 1-1.875.208zm-9.808-58.625c-.486 0-.965.052-1.435.158-7.256 1.634-10.484 15.907-7.047 31.168 1.719 7.634 4.79 14.468 8.647 19.242 3.699 4.579 7.635 6.674 11.079 5.898 3.445-.776 6.103-4.354 7.482-10.077 1.438-5.967 1.284-13.457-.435-21.091s-4.79-14.468-8.647-19.242c-3.195-3.954-6.566-6.056-9.644-6.056zm88.603 102.503c-3.699 0-7.609-2.356-11.2-6.8-4.046-5.008-7.257-12.132-9.042-20.059s-1.937-15.74-.428-21.999c1.567-6.503 4.759-10.608 8.987-11.56 4.227-.953 8.871 1.389 13.074 6.592 4.046 5.008 7.257 12.132 9.042 20.059s1.937 15.74.428 21.999c-1.567 6.503-4.759 10.608-8.987 11.56a8.51 8.51 0 0 1-1.874.208zm-9.809-58.625c-.486 0-.965.052-1.435.158-3.445.776-6.103 4.354-7.482 10.077-1.438 5.967-1.284 13.457.435 21.091s4.79 14.468 8.647 19.242c3.699 4.579 7.634 6.675 11.079 5.898 3.445-.776 6.103-4.354 7.482-10.077 1.438-5.967 1.284-13.457-.435-21.091s-4.79-14.468-8.647-19.242c-3.195-3.954-6.565-6.056-9.644-6.056zm11.163 425.666c-8.092 0-16.703-11.205-20.229-26.861-3.801-16.881-.042-31.622 8.559-33.559 4.232-.953 8.871 1.39 13.075 6.592 4.046 5.008 7.257 12.132 9.042 20.059 3.801 16.882.042 31.622-8.559 33.559a8.55 8.55 0 0 1-1.888.21zm-9.795-58.627c-.486 0-.965.052-1.435.158-7.256 1.634-10.483 15.907-7.047 31.168 3.437 15.261 12.472 26.775 19.726 25.14 7.256-1.634 10.484-15.907 7.047-31.168-1.719-7.634-4.79-14.468-8.647-19.242-3.195-3.954-6.566-6.056-9.644-6.056zm88.589 102.505c-8.092 0-16.703-11.205-20.229-26.861-3.801-16.881-.042-31.622 8.559-33.559 4.227-.953 8.871 1.389 13.074 6.592 4.046 5.008 7.257 12.132 9.042 20.059 3.801 16.882.042 31.622-8.559 33.559a8.52 8.52 0 0 1-1.887.21zm-9.794-58.627c-.486 0-.965.052-1.435.158-7.256 1.634-10.484 15.907-7.047 31.168s12.471 26.772 19.726 25.14c7.256-1.634 10.484-15.907 7.047-31.168-1.719-7.634-4.79-14.468-8.647-19.242-3.195-3.954-6.566-6.056-9.644-6.056zM83.671 424.435c-8.092.001-16.703-11.205-20.229-26.861-3.801-16.881-.042-31.622 8.559-33.559 4.227-.953 8.87 1.389 13.075 6.592 4.046 5.008 7.257 12.132 9.042 20.059 3.801 16.882.042 31.623-8.559 33.559a8.55 8.55 0 0 1-1.888.21zm-9.796-58.627c-.486 0-.965.052-1.435.158-7.256 1.634-10.483 15.907-7.047 31.168 3.437 15.261 12.471 26.774 19.726 25.14 7.256-1.634 10.483-15.907 7.047-31.168-1.719-7.634-4.79-14.468-8.646-19.242-3.195-3.954-6.566-6.056-9.645-6.056zm157.581 144.204c-3.699 0-7.609-2.356-11.199-6.8-4.046-5.008-7.257-12.132-9.042-20.059-3.801-16.881-.042-31.622 8.559-33.559 4.228-.953 8.871 1.39 13.074 6.592 4.046 5.008 7.257 12.132 9.042 20.059s1.937 15.74.428 21.999c-1.567 6.503-4.759 10.608-8.987 11.56a8.511 8.511 0 0 1-1.875.208zm-9.808-58.625c-.486 0-.965.052-1.435.158-7.256 1.634-10.484 15.907-7.047 31.168 1.719 7.634 4.79 14.468 8.647 19.242 3.7 4.579 7.634 6.675 11.079 5.898 3.445-.776 6.103-4.354 7.482-10.077 1.438-5.967 1.284-13.457-.435-21.091s-4.79-14.468-8.647-19.242c-3.195-3.955-6.565-6.056-9.644-6.056zm86.992 467.615c-3.699 0-7.609-2.356-11.2-6.8-4.046-5.008-7.257-12.132-9.042-20.059-3.801-16.882-.042-31.622 8.559-33.559 8.597-1.938 18.315 9.771 22.117 26.652 3.801 16.881.042 31.622-8.559 33.559a8.585 8.585 0 0 1-1.875.207zm-9.84-58.622c-.474 0-.942.051-1.404.155-7.256 1.634-10.484 15.907-7.047 31.168 1.719 7.634 4.79 14.468 8.647 19.242 3.7 4.579 7.634 6.674 11.079 5.898 7.256-1.634 10.484-15.907 7.047-31.168-3.218-14.291-11.344-25.295-18.322-25.295zM69.128 294.859h-.006a1.001 1.001 0 0 1-.994-1.006l.353-54.869a1 1 0 0 1 1-.994h.006c.552.004.997.454.994 1.006l-.353 54.869a1 1 0 0 1-1 .994zM1 377.329H.994A1.001 1.001 0 0 1 0 376.323l.352-54.869c.003-.552.444-.948 1.006-.994.552.004.997.454.994 1.006L2 376.335a1 1 0 0 1-1 .994zm148.579 86.198h-.006a1.001 1.001 0 0 1-.994-1.006l.352-54.869c.003-.552.433-1.01 1.006-.994.552.004.997.454.994 1.006l-.352 54.869a1 1 0 0 1-1 .994zm156.133 90.099h-.006a1.001 1.001 0 0 1-.994-1.006l.352-54.869c.003-.552.448-.976 1.006-.994.552.004.997.454.994 1.006l-.352 54.869c-.004.55-.451.994-1 .994zm-78.4 76.1h-.006a1.001 1.001 0 0 1-.994-1.006l.352-54.869a.982.982 0 0 1 1.006-.994c.552.004.997.454.994 1.006l-.352 54.869a1 1 0 0 1-1 .994zm-78.038-44.897h-.006a1.001 1.001 0 0 1-.994-1.006l.353-54.869c.003-.552.461-.964 1.006-.994.552.004.997.454.994 1.006l-.353 54.869a1 1 0 0 1-1 .994zm-.222 121.591h-.006a1.001 1.001 0 0 1-.994-1.006l.352-54.869c.003-.552.408-1 1.006-.994.552.004.997.454.994 1.006l-.352 54.869a1 1 0 0 1-1 .994zm77.8 165.763h-.006a1.001 1.001 0 0 1-.994-1.006l.353-54.869c.003-.552.475-.967 1.006-.994.552.004.997.454.994 1.006l-.353 54.869a1 1 0 0 1-1 .994zm154.936 89.878h-.006a1.001 1.001 0 0 1-.994-1.006l.352-54.869a1.001 1.001 0 0 1 2 .012l-.352 54.869a1 1 0 0 1-1 .994z"/></svg></g><g transform="translate(930.0 346.8) rotate(0.0 772.2 1115.3999999999999) scale(1.4281024749522626 1.4297516264802717)"><svg width="1081.435" height="1560.271" viewBox="0 0 1081.435 1560.271"><path d="M717.064 1559.271 1.65 1132.169 1 204.104l716.064 424.318z" fill="#adc4cb"/><path d="M717.064 1560.271c-.177 0-.355-.047-.513-.141L1.137 1133.028a1 1 0 0 1-.487-.858L0 204.105a1 1 0 0 1 1.51-.861l716.064 424.318a1 1 0 0 1 .49.86v930.85a1 1 0 0 1-1 .999zM2.649 1131.601l713.415 425.909V628.992L2.001 205.86z"/><path d="m1077.975 1346.732-360.911 212.539V628.422l363.371-211.081z"/><path d="M717.064 1560.271a.999.999 0 0 1-1-1v-930.85a1 1 0 0 1 .498-.865l363.371-211.081a1 1 0 0 1 1.502.868l-2.459 929.39a.998.998 0 0 1-.493.859l-360.911 212.54a.994.994 0 0 1-.508.139zm1-931.274v928.524l358.913-211.362 2.453-927.078zm359.911 717.735h.01z"/><path d="M717.064 628.422 1 204.104 354.608 1l725.827 416.341z" fill="#fff"/><path d="M717.064 629.422c-.176 0-.353-.047-.51-.14L.49 204.964a.998.998 0 0 1 .012-1.727L354.11.133a1 1 0 0 1 .996 0l725.827 416.341a1 1 0 0 1 .004 1.732l-363.37 211.08a.993.993 0 0 1-.503.136zM2.984 204.118l714.085 423.145 361.366-209.916L354.608 2.153z"/><path d="M806.252 796.475a5.84 5.84 0 0 1-5.84-5.84v-71.578c0-8.788 7.124-15.913 15.913-15.913a4.709 4.709 0 0 1 4.709 4.709v73.84c-.001 8.164-6.619 14.782-14.782 14.782z" fill="#dbf301"/><path d="M806.251 797.475a6.849 6.849 0 0 1-6.84-6.84v-71.578c0-9.326 7.587-16.913 16.913-16.913a5.715 5.715 0 0 1 5.709 5.709v73.84c0 8.702-7.079 15.782-15.782 15.782zm10.073-93.331c-8.223 0-14.913 6.69-14.913 14.913v71.578a4.845 4.845 0 0 0 4.84 4.84c7.599 0 13.782-6.182 13.782-13.782v-73.84a3.713 3.713 0 0 0-3.709-3.709z"/><path d="M845.033 774.553a5.84 5.84 0 0 1-5.84-5.84v-71.578c0-8.788 7.124-15.913 15.913-15.913a4.709 4.709 0 0 1 4.709 4.709v73.84c0 8.164-6.619 14.782-14.782 14.782z" fill="#dbf301"/><path d="M845.033 775.553a6.848 6.848 0 0 1-6.84-6.84v-71.578c0-9.326 7.587-16.913 16.913-16.913a5.715 5.715 0 0 1 5.709 5.709v73.84c-.001 8.702-7.08 15.782-15.782 15.782zm10.072-93.331c-8.223 0-14.913 6.69-14.913 14.913v71.578a4.845 4.845 0 0 0 4.84 4.84c7.599 0 13.782-6.183 13.782-13.782v-73.84a3.713 3.713 0 0 0-3.709-3.709z"/><path d="M883.187 752.917a5.84 5.84 0 0 1-5.84-5.84v-71.578c0-8.788 7.124-15.913 15.913-15.913a4.709 4.709 0 0 1 4.709 4.709v73.84c-.001 8.164-6.619 14.782-14.782 14.782z" fill="#dbf301"/><path d="M883.186 753.917a6.848 6.848 0 0 1-6.84-6.84v-71.578c0-9.326 7.587-16.913 16.913-16.913a5.715 5.715 0 0 1 5.709 5.709v73.84c0 8.702-7.079 15.782-15.782 15.782zm10.073-93.331c-8.223 0-14.913 6.69-14.913 14.913v71.578a4.845 4.845 0 0 0 4.84 4.84c7.599 0 13.782-6.183 13.782-13.782v-73.84a3.713 3.713 0 0 0-3.709-3.709z"/><path d="M920.642 731.048a5.84 5.84 0 0 1-5.84-5.84V653.63c0-8.788 7.124-15.913 15.913-15.913a4.709 4.709 0 0 1 4.709 4.709v73.84c0 8.164-6.618 14.782-14.782 14.782z" fill="#dbf301"/><path d="M920.643 732.048a6.848 6.848 0 0 1-6.84-6.84V653.63c0-9.326 7.587-16.913 16.913-16.913a5.715 5.715 0 0 1 5.709 5.709v73.84c-.001 8.702-7.08 15.782-15.782 15.782zm10.072-93.331c-8.223 0-14.913 6.69-14.913 14.913v71.578a4.845 4.845 0 0 0 4.84 4.84c7.599 0 13.782-6.183 13.782-13.782v-73.84a3.713 3.713 0 0 0-3.709-3.709z"/><path d="M959.494 708.714a5.84 5.84 0 0 1-5.84-5.84v-71.578c0-8.788 7.124-15.913 15.913-15.913a4.709 4.709 0 0 1 4.709 4.709v73.84c0 8.164-6.618 14.782-14.782 14.782z" fill="#dbf301"/><path d="M959.494 709.714a6.848 6.848 0 0 1-6.84-6.84v-71.578c0-9.326 7.587-16.913 16.913-16.913a5.715 5.715 0 0 1 5.709 5.709v73.84c0 8.703-7.08 15.782-15.782 15.782zm10.073-93.331c-8.223 0-14.913 6.69-14.913 14.913v71.578a4.845 4.845 0 0 0 4.84 4.84c7.599 0 13.782-6.182 13.782-13.782v-73.84a3.713 3.713 0 0 0-3.709-3.709z"/><path d="M997.916 687.776a5.84 5.84 0 0 1-5.84-5.84v-71.578c0-8.788 7.124-15.913 15.913-15.913a4.709 4.709 0 0 1 4.709 4.709v73.84c0 8.164-6.618 14.782-14.782 14.782z" fill="#dbf301"/><path d="M997.916 688.776a6.848 6.848 0 0 1-6.84-6.84v-71.578c0-9.326 7.587-16.913 16.913-16.913a5.715 5.715 0 0 1 5.709 5.709v73.84c0 8.702-7.08 15.782-15.782 15.782zm10.072-93.331c-8.223 0-14.913 6.69-14.913 14.913v71.578a4.845 4.845 0 0 0 4.84 4.84c7.599 0 13.782-6.183 13.782-13.782v-73.84a3.712 3.712 0 0 0-3.709-3.709z"/><path d="M806.252 932.475a5.84 5.84 0 0 1-5.84-5.84v-71.578c0-8.788 7.124-15.913 15.913-15.913a4.709 4.709 0 0 1 4.709 4.709v73.84c-.001 8.164-6.619 14.782-14.782 14.782z" fill="#dbf301"/><path d="M806.251 933.475a6.849 6.849 0 0 1-6.84-6.84v-71.578c0-9.326 7.587-16.913 16.913-16.913a5.715 5.715 0 0 1 5.709 5.709v73.84c0 8.702-7.079 15.782-15.782 15.782zm10.073-93.331c-8.223 0-14.913 6.69-14.913 14.913v71.578a4.845 4.845 0 0 0 4.84 4.84c7.599 0 13.782-6.182 13.782-13.782v-73.84a3.713 3.713 0 0 0-3.709-3.709z"/><path d="M845.033 910.553a5.84 5.84 0 0 1-5.84-5.84v-71.578c0-8.788 7.124-15.913 15.913-15.913a4.709 4.709 0 0 1 4.709 4.709v73.84c0 8.164-6.619 14.782-14.782 14.782z" fill="#dbf301"/><path d="M845.033 911.553a6.848 6.848 0 0 1-6.84-6.84v-71.578c0-9.326 7.587-16.913 16.913-16.913a5.715 5.715 0 0 1 5.709 5.709v73.84c-.001 8.702-7.08 15.782-15.782 15.782zm10.072-93.331c-8.223 0-14.913 6.69-14.913 14.913v71.578a4.845 4.845 0 0 0 4.84 4.84c7.599 0 13.782-6.183 13.782-13.782v-73.84a3.713 3.713 0 0 0-3.709-3.709z"/><path d="M883.187 888.917a5.84 5.84 0 0 1-5.84-5.84v-71.578c0-8.788 7.124-15.913 15.913-15.913a4.709 4.709 0 0 1 4.709 4.709v73.84c-.001 8.164-6.619 14.782-14.782 14.782z" fill="#dbf301"/><path d="M883.186 889.917a6.848 6.848 0 0 1-6.84-6.84v-71.578c0-9.326 7.587-16.913 16.913-16.913a5.715 5.715 0 0 1 5.709 5.709v73.84c0 8.702-7.079 15.782-15.782 15.782zm10.073-93.331c-8.223 0-14.913 6.69-14.913 14.913v71.578a4.845 4.845 0 0 0 4.84 4.84c7.599 0 13.782-6.183 13.782-13.782v-73.84a3.713 3.713 0 0 0-3.709-3.709z"/><path d="M920.642 867.048a5.84 5.84 0 0 1-5.84-5.84V789.63c0-8.788 7.124-15.913 15.913-15.913a4.709 4.709 0 0 1 4.709 4.709v73.84c0 8.164-6.618 14.782-14.782 14.782z" fill="#dbf301"/><path d="M920.643 868.048a6.848 6.848 0 0 1-6.84-6.84V789.63c0-9.326 7.587-16.913 16.913-16.913a5.715 5.715 0 0 1 5.709 5.709v73.84c-.001 8.702-7.08 15.782-15.782 15.782zm10.072-93.331c-8.223 0-14.913 6.69-14.913 14.913v71.578a4.845 4.845 0 0 0 4.84 4.84c7.599 0 13.782-6.183 13.782-13.782v-73.84a3.713 3.713 0 0 0-3.709-3.709z"/><path d="M959.494 844.714a5.84 5.84 0 0 1-5.84-5.84v-71.578c0-8.788 7.124-15.913 15.913-15.913a4.709 4.709 0 0 1 4.709 4.709v73.84c0 8.164-6.618 14.782-14.782 14.782z" fill="#dbf301"/><path d="M959.494 845.714a6.848 6.848 0 0 1-6.84-6.84v-71.578c0-9.326 7.587-16.913 16.913-16.913a5.715 5.715 0 0 1 5.709 5.709v73.84c0 8.703-7.08 15.782-15.782 15.782zm10.073-93.331c-8.223 0-14.913 6.69-14.913 14.913v71.578a4.845 4.845 0 0 0 4.84 4.84c7.599 0 13.782-6.182 13.782-13.782v-73.84a3.713 3.713 0 0 0-3.709-3.709z"/><path d="M997.916 823.776a5.84 5.84 0 0 1-5.84-5.84v-71.578c0-8.788 7.124-15.913 15.913-15.913a4.709 4.709 0 0 1 4.709 4.709v73.84c0 8.164-6.618 14.782-14.782 14.782z" fill="#dbf301"/><path d="M997.916 824.776a6.848 6.848 0 0 1-6.84-6.84v-71.578c0-9.326 7.587-16.913 16.913-16.913a5.715 5.715 0 0 1 5.709 5.709v73.84c0 8.702-7.08 15.782-15.782 15.782zm10.072-93.331c-8.223 0-14.913 6.69-14.913 14.913v71.578a4.845 4.845 0 0 0 4.84 4.84c7.599 0 13.782-6.183 13.782-13.782v-73.84a3.712 3.712 0 0 0-3.709-3.709z"/><path d="m1021.065 1291.888-200.041 116.64c-3.001 1.75-6.771-.405-6.786-3.879l-1.002-234.237a6.716 6.716 0 0 1 3.384-5.859l203.664-116.307c2.946-1.682 6.608.456 6.591 3.848l-1.156 231.738a9.38 9.38 0 0 1-4.654 8.056z" fill="#fff"/><path d="M818.751 1410.15a5.505 5.505 0 0 1-2.736-.735 5.457 5.457 0 0 1-2.777-4.762l-1.002-234.237a7.725 7.725 0 0 1 3.889-6.731l203.664-116.307a5.349 5.349 0 0 1 5.407.026 5.352 5.352 0 0 1 2.681 4.695l-1.156 231.738a10.421 10.421 0 0 1-5.151 8.915l-.504-.864.504.864-200.041 116.64a5.516 5.516 0 0 1-2.778.758zm203.719-361.49c-.58 0-1.159.151-1.689.454L817.117 1165.42a5.723 5.723 0 0 0-2.881 4.986l1.002 234.237a3.478 3.478 0 0 0 1.769 3.035 3.48 3.48 0 0 0 3.513-.015l200.041-116.64a8.413 8.413 0 0 0 4.159-7.197l1.156-231.738a3.371 3.371 0 0 0-1.689-2.958 3.4 3.4 0 0 0-1.717-.47z"/><path d="m897.439 1334.717-42.691 25.004c-4.446 2.604-10.04-.602-10.04-5.755v-12.603a22.557 22.557 0 0 1 11.572-19.701l43.526-24.267c3.671-2.047 8.19.607 8.19 4.81v14.092c0 7.58-4.018 14.59-10.557 18.42z"/><path d="M851.378 1361.648a7.657 7.657 0 0 1-3.814-1.028 7.588 7.588 0 0 1-3.855-6.654v-12.603a23.573 23.573 0 0 1 12.085-20.574l43.526-24.267a6.444 6.444 0 0 1 6.464.073 6.448 6.448 0 0 1 3.212 5.611v14.092c0 7.9-4.235 15.288-11.052 19.281l-42.691 25.004a7.645 7.645 0 0 1-3.875 1.065zm51.112-63.955c-.753 0-1.506.192-2.196.577l-43.526 24.267a21.572 21.572 0 0 0-11.059 18.827v12.603a5.606 5.606 0 0 0 2.85 4.918 5.607 5.607 0 0 0 5.684-.026l42.691-25.004c6.207-3.636 10.062-10.362 10.062-17.555v-14.092a4.466 4.466 0 0 0-2.225-3.887 4.483 4.483 0 0 0-2.281-.628zm-5.051 37.024h.01z"/><path d="m990.441 1281.03-42.691 25.004c-4.446 2.604-10.04-.602-10.04-5.755v-12.603a22.557 22.557 0 0 1 11.572-19.701l43.526-24.267c3.671-2.047 8.19.607 8.19 4.811v14.092a21.341 21.341 0 0 1-10.557 18.419z" fill="#adc4cb"/><path d="M944.381 1307.961a7.664 7.664 0 0 1-3.815-1.028 7.588 7.588 0 0 1-3.855-6.654v-12.603a23.573 23.573 0 0 1 12.085-20.574l43.526-24.267a6.45 6.45 0 0 1 6.465.073 6.447 6.447 0 0 1 3.211 5.611v14.092c0 7.9-4.235 15.289-11.052 19.281l-42.69 25.004a7.645 7.645 0 0 1-3.875 1.065zm51.111-63.955a4.5 4.5 0 0 0-2.196.577l-43.526 24.267a21.572 21.572 0 0 0-11.059 18.827v12.603a5.606 5.606 0 0 0 2.85 4.918 5.614 5.614 0 0 0 5.685-.026l42.69-25.004c6.207-3.635 10.062-10.362 10.062-17.555v-14.092a4.467 4.467 0 0 0-2.224-3.886 4.475 4.475 0 0 0-2.282-.629z"/><path d="m987.454 1274.375-36.923 22.069c-2.655 1.555-5.995-.36-5.995-3.437v-7.526c0-4.884 2.644-9.386 6.91-11.764l37.422-21.629c2.192-1.222 4.89.363 4.89 2.873v8.415a12.743 12.743 0 0 1-6.304 10.999z"/><path d="M948.518 1297.998c-.85 0-1.7-.222-2.476-.667a4.931 4.931 0 0 1-2.505-4.323v-7.525a14.48 14.48 0 0 1 7.423-12.638l37.408-21.621a4.254 4.254 0 0 1 4.274.041 4.248 4.248 0 0 1 2.117 3.698v8.415c0 4.858-2.604 9.402-6.795 11.859l-36.918 22.066a5.003 5.003 0 0 1-2.528.695zm41.952-45.328c-.382 0-.765.098-1.115.293l-37.408 21.621a12.487 12.487 0 0 0-6.411 10.898v7.525c0 1.082.561 2.05 1.5 2.588s2.056.532 2.99-.014l36.915-22.064.008-.004a11.79 11.79 0 0 0 5.81-10.136v-8.415a2.27 2.27 0 0 0-1.129-1.974 2.29 2.29 0 0 0-1.16-.318z"/><path d="m991.941 1195.23-44.637 26.132c-1.288.754-2.908-.175-2.908-1.667v-4.279a5.363 5.363 0 0 1 2.654-4.629l43.983-25.748c1.745-1.021 3.94.237 3.94 2.259v2.646a6.13 6.13 0 0 1-3.032 5.286z" fill="#fff"/><path d="M946.328 1222.631c-.5 0-1.001-.131-1.459-.393a2.901 2.901 0 0 1-1.474-2.544v-4.279a6.388 6.388 0 0 1 3.149-5.492l43.983-25.749a3.581 3.581 0 0 1 3.627-.017 3.579 3.579 0 0 1 1.818 3.139v2.646a7.152 7.152 0 0 1-3.526 6.15l-44.638 26.131a2.91 2.91 0 0 1-1.48.408zm46.027-36.955c-.281 0-.562.075-.817.224l-43.983 25.749a4.38 4.38 0 0 0-2.16 3.766v4.279c0 .487.328.728.469.809s.514.242.934-.004l44.638-26.131a5.146 5.146 0 0 0 2.537-4.424v-2.646c0-.587-.304-1.112-.813-1.404a1.605 1.605 0 0 0-.805-.218zm-.414 9.554h.01z"/><path d="m990.441 1209.2-42.691 25.004c-4.446 2.604-10.04-.602-10.04-5.755v-12.603a22.557 22.557 0 0 1 11.572-19.701l43.526-24.267c3.671-2.047 8.19.607 8.19 4.811v14.092a21.341 21.341 0 0 1-10.557 18.419z" fill="#adc4cb"/><path d="M944.381 1236.132a7.661 7.661 0 0 1-3.815-1.028 7.588 7.588 0 0 1-3.855-6.654v-12.603a23.573 23.573 0 0 1 12.085-20.574l43.526-24.267a6.445 6.445 0 0 1 6.465.073 6.447 6.447 0 0 1 3.211 5.611v14.092c0 7.9-4.235 15.288-11.052 19.281l-42.69 25.004a7.645 7.645 0 0 1-3.875 1.065zm51.111-63.956a4.5 4.5 0 0 0-2.196.577l-43.526 24.267a21.572 21.572 0 0 0-11.059 18.827v12.603a5.606 5.606 0 0 0 2.85 4.918 5.611 5.611 0 0 0 5.685-.026l42.69-25.004c6.207-3.636 10.062-10.362 10.062-17.555v-14.092a4.466 4.466 0 0 0-2.225-3.887 4.49 4.49 0 0 0-2.281-.628zm-5.051 37.025h.01z"/><path d="m897.439 1190.771-42.691 25.004c-4.446 2.604-10.04-.602-10.04-5.755v-12.603a22.557 22.557 0 0 1 11.572-19.701l43.526-24.267c3.671-2.047 8.19.607 8.19 4.811v14.092a21.345 21.345 0 0 1-10.557 18.419z" fill="#adc4cb"/><path d="M851.378 1217.703a7.657 7.657 0 0 1-3.814-1.028 7.588 7.588 0 0 1-3.855-6.654v-12.603a23.573 23.573 0 0 1 12.085-20.574l43.526-24.267a6.444 6.444 0 0 1 6.464.073 6.448 6.448 0 0 1 3.212 5.611v14.093c0 7.9-4.235 15.288-11.052 19.281l-42.691 25.004a7.653 7.653 0 0 1-3.875 1.064zm51.112-63.956a4.5 4.5 0 0 0-2.196.577l-43.526 24.267a21.572 21.572 0 0 0-11.059 18.827v12.603a5.606 5.606 0 0 0 2.85 4.918 5.61 5.61 0 0 0 5.684-.026l42.691-25.004c6.207-3.636 10.062-10.362 10.062-17.555v-14.093a4.466 4.466 0 0 0-2.225-3.886 4.483 4.483 0 0 0-2.281-.628zm-5.051 37.024h.01z"/><path d="m900.232 1176.452-46.26 27.082c-1.288.754-2.908-.175-2.908-1.667v-4.279a5.363 5.363 0 0 1 2.654-4.629l43.983-25.748c1.745-1.022 3.94.237 3.94 2.259v4.527c0 1.01-.537 1.945-1.409 2.455z"/><path d="M852.996 1204.804c-.5 0-1.001-.131-1.458-.394a2.9 2.9 0 0 1-1.474-2.543v-4.279a6.388 6.388 0 0 1 3.148-5.492l43.983-25.748a3.579 3.579 0 0 1 3.627-.017 3.578 3.578 0 0 1 1.818 3.138v4.527a3.86 3.86 0 0 1-1.903 3.319l-46.26 27.082a2.923 2.923 0 0 1-1.481.407zm46.027-36.955c-.281 0-.562.075-.817.224l-43.983 25.748a4.38 4.38 0 0 0-2.159 3.767v4.279c0 .487.328.728.468.809a.914.914 0 0 0 .935-.004l46.26-27.082c.563-.33.913-.94.913-1.593v-4.527a1.6 1.6 0 0 0-.813-1.403 1.599 1.599 0 0 0-.804-.218z"/><path d="m897.439 1263.403-42.691 25.004c-4.446 2.604-10.04-.602-10.04-5.755v-12.603a22.557 22.557 0 0 1 11.572-19.701l43.526-24.267c3.671-2.047 8.19.607 8.19 4.81v14.092c0 7.58-4.018 14.59-10.557 18.42z" fill="#adc4cb"/><path d="M851.378 1290.334a7.647 7.647 0 0 1-3.814-1.028 7.588 7.588 0 0 1-3.855-6.654v-12.603a23.573 23.573 0 0 1 12.085-20.574l43.526-24.267a6.446 6.446 0 0 1 6.464.073 6.448 6.448 0 0 1 3.212 5.611v14.092c0 7.9-4.235 15.288-11.052 19.281l-42.691 25.004a7.645 7.645 0 0 1-3.875 1.065zm51.112-63.956c-.753 0-1.506.192-2.196.577l-43.526 24.267a21.572 21.572 0 0 0-11.059 18.827v12.603a5.606 5.606 0 0 0 2.85 4.918 5.607 5.607 0 0 0 5.684-.026l42.691-25.004c6.207-3.636 10.062-10.362 10.062-17.555v-14.092a4.466 4.466 0 0 0-2.225-3.887 4.493 4.493 0 0 0-2.281-.628zm-5.051 37.025h.01z"/><path d="m900.232 1248.482-46.26 27.082c-1.288.754-2.908-.175-2.908-1.667v-4.279a5.363 5.363 0 0 1 2.654-4.629l43.983-25.748c1.745-1.022 3.94.237 3.94 2.259v4.527a2.848 2.848 0 0 1-1.409 2.455z"/><path d="M852.996 1276.833c-.5 0-1.001-.131-1.458-.393a2.9 2.9 0 0 1-1.474-2.543v-4.28a6.39 6.39 0 0 1 3.148-5.492l43.983-25.748a3.577 3.577 0 0 1 3.626-.017 3.58 3.58 0 0 1 1.819 3.139v4.527a3.86 3.86 0 0 1-1.903 3.319l-46.26 27.082a2.922 2.922 0 0 1-1.481.406zm46.027-36.955c-.281 0-.562.075-.817.224l-43.983 25.748a4.38 4.38 0 0 0-2.159 3.766v4.28c0 .487.328.728.469.809s.514.243.934-.004l46.26-27.082c.563-.33.914-.941.914-1.593v-4.527a1.6 1.6 0 0 0-.813-1.403 1.615 1.615 0 0 0-.805-.218zm1.209 8.604h.01z"/><path d="m990.382 1162.406-42.448 24.862c-4.527 2.651-10.222-.613-10.222-5.859v-37.391a22.557 22.557 0 0 1 11.572-19.701l43.526-24.267c3.671-2.047 8.19.607 8.19 4.811v39.023a21.469 21.469 0 0 1-10.618 18.522z" fill="#adc4cb"/><path d="M944.502 1189.212c-1.33 0-2.66-.348-3.875-1.044a7.708 7.708 0 0 1-3.916-6.759v-37.391a23.573 23.573 0 0 1 12.085-20.574l43.526-24.267a6.45 6.45 0 0 1 6.465.073 6.447 6.447 0 0 1 3.211 5.611v39.023c0 7.943-4.258 15.371-11.111 19.385l-.505-.863.505.863-42.449 24.862a7.775 7.775 0 0 1-3.936 1.081zm50.99-88.865a4.5 4.5 0 0 0-2.196.577l-43.526 24.267a21.572 21.572 0 0 0-11.059 18.827v37.391a5.727 5.727 0 0 0 2.911 5.023 5.728 5.728 0 0 0 5.806-.027l42.449-24.862c6.244-3.657 10.122-10.424 10.122-17.66v-39.023a4.467 4.467 0 0 0-2.224-3.886 4.499 4.499 0 0 0-2.283-.627z"/><path d="m953.637 1171.06-3.699 1.937c-1.643.861-3.612-.331-3.612-2.186v-29.743c0-1.475.819-2.827 2.125-3.512l3.341-1.75c1.528-.8 3.36.308 3.36 2.033v30.717a2.827 2.827 0 0 1-1.515 2.504z"/><path d="M948.791 1174.283c-.62 0-1.238-.169-1.793-.504a3.442 3.442 0 0 1-1.672-2.967v-29.743a4.949 4.949 0 0 1 2.661-4.397l3.341-1.75a3.268 3.268 0 0 1 3.234.1 3.27 3.27 0 0 1 1.589 2.819v30.717a3.815 3.815 0 0 1-2.05 3.388l-3.699 1.937c-.509.267-1.061.4-1.611.4zm4.067-37.742c-.204 0-.409.051-.603.152l-3.341 1.75a2.957 2.957 0 0 0-1.588 2.626v29.743c0 .526.258.983.708 1.255.449.272.975.289 1.44.044l3.698-1.937a1.82 1.82 0 0 0 .979-1.617v-30.717c0-.464-.228-.868-.625-1.108a1.285 1.285 0 0 0-.668-.191zm.779 34.519h.01zm18.616-6.11-3.699 1.937c-1.643.86-3.612-.331-3.612-2.186v-29.743c0-1.475.819-2.828 2.125-3.512l3.341-1.75c1.528-.8 3.36.308 3.36 2.033v30.717a2.829 2.829 0 0 1-1.515 2.504z"/><path d="M967.408 1168.173a3.45 3.45 0 0 1-1.793-.505 3.442 3.442 0 0 1-1.672-2.967v-29.743a4.949 4.949 0 0 1 2.661-4.397l3.341-1.75a3.27 3.27 0 0 1 3.234.099 3.27 3.27 0 0 1 1.589 2.819v30.717a3.814 3.814 0 0 1-2.05 3.388l-3.699 1.938a3.46 3.46 0 0 1-1.611.401zm4.067-37.742c-.204 0-.409.05-.603.152l-3.341 1.75a2.957 2.957 0 0 0-1.588 2.626v29.743c0 .526.258.983.708 1.256.45.272.976.289 1.441.044l3.699-1.938c.603-.316.978-.936.978-1.617v-30.717c0-.464-.228-.868-.625-1.108a1.29 1.29 0 0 0-.669-.191zm18.925 18.948-3.699 1.937c-1.643.861-3.612-.331-3.612-2.186v-29.743c0-1.475.819-2.827 2.125-3.512l3.341-1.75c1.528-.8 3.36.308 3.36 2.033v30.717a2.829 2.829 0 0 1-1.515 2.504z"/><path d="M985.554 1152.602c-.62 0-1.238-.169-1.793-.504a3.442 3.442 0 0 1-1.672-2.967v-29.743a4.949 4.949 0 0 1 2.661-4.397l3.34-1.75a3.27 3.27 0 0 1 3.235.1 3.271 3.271 0 0 1 1.589 2.819v30.718a3.815 3.815 0 0 1-2.05 3.388l-3.699 1.937a3.475 3.475 0 0 1-1.611.399zm4.067-37.742c-.205 0-.41.051-.603.152l-3.34 1.75a2.955 2.955 0 0 0-1.589 2.625v29.743c0 .526.258.983.708 1.255s.975.289 1.44.044l3.698-1.937a1.82 1.82 0 0 0 .979-1.617v-30.718c0-.464-.228-.867-.625-1.107a1.29 1.29 0 0 0-.668-.19zm.779 34.519h.01z"/><path d="M641.232 886.356 80.11 562.805a16.496 16.496 0 0 1-8.255-14.2l-.851-156.543c-.013-2.429 2.613-3.958 4.719-2.746l564.044 324.562a14.552 14.552 0 0 1 7.294 12.688l-.816 156.27c-.001 3.013-2.402 5.025-5.013 3.52z" fill="#fff"/><path d="M643.004 887.865c-.753 0-1.529-.215-2.271-.643L79.61 563.671a17.557 17.557 0 0 1-8.756-15.061l-.851-156.543c-.008-1.503.763-2.852 2.062-3.608s2.853-.76 4.156-.01l564.044 324.562a15.578 15.578 0 0 1 7.795 13.56l-.816 156.27c0 1.953-.89 3.683-2.322 4.51a3.802 3.802 0 0 1-1.918.514zm-1.272-2.375c.792.456 1.549.5 2.19.129.816-.471 1.323-1.538 1.323-2.784l.816-156.275a13.578 13.578 0 0 0-6.792-11.816L75.224 390.182a2.128 2.128 0 0 0-2.152.005 2.127 2.127 0 0 0-1.068 1.869l.851 156.543a15.548 15.548 0 0 0 7.755 13.339z"/><path d="M445.577 690.555c-.438 5.52-6.089 8.484-10.879 5.706L105.675 505.404a26.024 26.024 0 0 1-12.937-21.961l-.068-3.287c-.127-6.172 5.668-9.589 11.007-6.491L433.52 664.071c8.492 4.902 13.064 14.153 12.289 23.928z" fill="#fff"/><path d="M438.525 698.313a8.633 8.633 0 0 1-4.329-1.188L105.173 506.269c-8.094-4.707-13.242-13.445-13.435-22.805l-.068-3.286c-.067-3.265 1.407-6.107 3.945-7.604s5.739-1.412 8.563.227L434.02 663.205c8.705 5.025 13.604 14.555 12.786 24.873l-.233 2.565c-.235 2.933-1.857 5.46-4.339 6.762a7.958 7.958 0 0 1-3.709.908zM99.575 473.498c-1.038 0-2.04.265-2.944.798-1.935 1.141-3.015 3.27-2.962 5.84l.068 3.286c.179 8.667 4.945 16.759 12.44 21.117L435.2 695.395c1.98 1.148 4.205 1.236 6.105.239s3.094-2.877 3.274-5.158l.001-.011.232-2.556c.755-9.53-3.763-18.336-11.793-22.971L103.177 474.532c-1.186-.688-2.417-1.034-3.602-1.034z"/><path d="m494.434 759.807-8.61-5.253a23.959 23.959 0 0 1-11.482-20.453v-60.485c0-6.275 7.084-9.477 12.299-5.989l6.575 3.92a29.075 29.075 0 0 1 12.91 24.141l.051 56.716c.066 6.416-5.554 10.578-11.743 7.403z" fill="#dbf301"/><path d="M498.656 761.892c-1.53 0-3.125-.398-4.679-1.196a.805.805 0 0 1-.064-.036l-8.61-5.253c-7.377-4.5-11.961-12.665-11.961-21.307v-60.485c0-3.146 1.642-5.902 4.391-7.371 2.963-1.583 6.59-1.372 9.465.551l6.531 3.892c8.397 5.615 13.389 14.95 13.397 24.999l.051 56.716c.037 3.533-1.535 6.632-4.204 8.281a8.14 8.14 0 0 1-4.317 1.209zm-3.734-2.959c2.502 1.274 4.987 1.292 6.999.049 2.068-1.278 3.285-3.733 3.255-6.569l-.051-56.725a28.026 28.026 0 0 0-12.466-23.311l-6.531-3.892c-2.303-1.539-5.142-1.711-7.454-.477-2.118 1.132-3.333 3.175-3.333 5.606v60.485c0 7.95 4.216 15.46 11.002 19.6z"/><path d="m550.126 791.768-8.61-5.253a23.959 23.959 0 0 1-11.482-20.453v-60.485c0-6.275 7.084-9.477 12.299-5.989l6.575 3.92a29.075 29.075 0 0 1 12.91 24.141l.051 56.716c.067 6.417-5.554 10.579-11.743 7.403z" fill="#dbf301"/><path d="M554.349 793.854c-1.531 0-3.125-.399-4.679-1.196a.805.805 0 0 1-.064-.036l-8.61-5.252c-7.378-4.5-11.961-12.665-11.961-21.307v-60.485c0-3.146 1.642-5.902 4.391-7.37 2.963-1.583 6.59-1.372 9.464.55l6.531 3.892c8.396 5.615 13.389 14.95 13.398 24.999l.051 56.716c.037 3.533-1.535 6.632-4.204 8.281a8.146 8.146 0 0 1-4.317 1.208zm-3.734-2.959c2.503 1.274 4.988 1.292 7 .049 2.068-1.278 3.285-3.733 3.255-6.569l-.051-56.725a28.028 28.028 0 0 0-12.466-23.311l-6.531-3.892c-2.303-1.539-5.142-1.711-7.454-.477-2.119 1.132-3.333 3.175-3.333 5.606v60.485c0 7.95 4.216 15.46 11.003 19.6z"/><path d="m604.919 823.685-8.61-5.253a23.959 23.959 0 0 1-11.482-20.453v-60.485c0-6.275 7.084-9.477 12.299-5.989l6.575 3.92a29.078 29.078 0 0 1 12.91 24.141l.051 56.716c.067 6.416-5.554 10.578-11.743 7.403z" fill="#fff"/><path d="M609.142 825.77c-1.53 0-3.125-.398-4.679-1.196a.805.805 0 0 1-.064-.036l-8.61-5.252c-7.377-4.5-11.961-12.665-11.961-21.307v-60.485c0-3.146 1.642-5.902 4.391-7.37 2.963-1.584 6.59-1.372 9.464.55l6.531 3.892c8.397 5.615 13.389 14.95 13.397 24.999l.051 56.716c.036 3.533-1.536 6.632-4.205 8.282a8.147 8.147 0 0 1-4.315 1.207zm-3.734-2.959c2.504 1.274 4.987 1.292 6.999.049 2.068-1.278 3.285-3.733 3.256-6.569l-.051-56.725a28.026 28.026 0 0 0-12.466-23.311l-6.531-3.892c-2.304-1.54-5.143-1.711-7.454-.477-2.119 1.132-3.333 3.175-3.333 5.606v60.485c0 7.95 4.216 15.46 11.002 19.6z"/><path d="M641.232 1156.356 80.11 832.805a16.496 16.496 0 0 1-8.255-14.2l-.851-156.543c-.013-2.429 2.613-3.958 4.719-2.746l564.044 324.562a14.552 14.552 0 0 1 7.294 12.688l-.816 156.27c-.001 3.013-2.402 5.025-5.013 3.52z" fill="#fff"/><path d="M643.004 1157.865c-.753 0-1.529-.215-2.271-.643L79.61 833.671a17.557 17.557 0 0 1-8.756-15.061l-.851-156.543c-.008-1.503.763-2.852 2.062-3.608s2.853-.76 4.156-.01l564.044 324.562a15.58 15.58 0 0 1 7.795 13.56l-.816 156.27c0 1.952-.89 3.683-2.322 4.51a3.802 3.802 0 0 1-1.918.514zm-1.272-2.375c.791.456 1.548.5 2.19.129.815-.471 1.322-1.538 1.322-2.784l.816-156.275a13.58 13.58 0 0 0-6.792-11.816L75.224 660.182a2.128 2.128 0 0 0-2.152.005 2.127 2.127 0 0 0-1.068 1.869l.851 156.543a15.548 15.548 0 0 0 7.755 13.339z"/><path d="M445.577 960.555c-.438 5.52-6.089 8.484-10.879 5.706L105.675 775.404a26.024 26.024 0 0 1-12.937-21.961l-.068-3.287c-.127-6.172 5.668-9.589 11.007-6.491L433.52 934.071c8.492 4.902 13.064 14.153 12.289 23.928z" fill="#fff"/><path d="M438.525 968.313a8.633 8.633 0 0 1-4.329-1.188L105.173 776.269c-8.094-4.707-13.242-13.445-13.435-22.805l-.068-3.286c-.067-3.265 1.407-6.107 3.945-7.604s5.739-1.412 8.563.227L434.02 933.205c8.705 5.025 13.604 14.555 12.786 24.873l-.233 2.565c-.235 2.933-1.857 5.46-4.339 6.762a7.958 7.958 0 0 1-3.709.908zM99.575 743.498c-1.038 0-2.04.265-2.944.798-1.935 1.141-3.015 3.27-2.962 5.84l.068 3.286c.179 8.667 4.945 16.759 12.44 21.117L435.2 965.395c1.98 1.148 4.205 1.236 6.105.239s3.094-2.877 3.274-5.158l.001-.011.232-2.556c.755-9.53-3.763-18.336-11.793-22.971L103.177 744.532c-1.186-.688-2.417-1.034-3.602-1.034z"/><path d="m494.434 1029.807-8.61-5.252a23.959 23.959 0 0 1-11.482-20.453v-60.485c0-6.275 7.084-9.477 12.299-5.989l6.575 3.92a29.075 29.075 0 0 1 12.91 24.141l.051 56.716c.066 6.415-5.554 10.577-11.743 7.402z" fill="#87c159"/><path d="M498.656 1031.892c-1.531 0-3.125-.399-4.679-1.196a.805.805 0 0 1-.064-.036l-8.61-5.252c-7.377-4.501-11.961-12.665-11.961-21.307v-60.485c0-3.146 1.642-5.902 4.391-7.371 2.963-1.583 6.59-1.372 9.465.551l6.531 3.892c8.397 5.615 13.389 14.95 13.397 24.999l.051 56.716c.037 3.532-1.535 6.632-4.204 8.281a8.146 8.146 0 0 1-4.317 1.208zm-3.734-2.959c2.503 1.275 4.988 1.292 7 .049 2.068-1.278 3.285-3.733 3.255-6.568l-.051-56.726a28.026 28.026 0 0 0-12.466-23.311l-6.531-3.892c-2.303-1.539-5.142-1.711-7.454-.477-2.118 1.132-3.333 3.175-3.333 5.606v60.485c0 7.95 4.216 15.459 11.002 19.6z"/><path d="m550.126 1061.768-8.61-5.253a23.959 23.959 0 0 1-11.482-20.453v-60.485c0-6.275 7.084-9.477 12.299-5.989l6.575 3.92a29.075 29.075 0 0 1 12.91 24.141l.051 56.716c.067 6.417-5.554 10.579-11.743 7.403z" fill="#dbf301"/><path d="M554.349 1063.854c-1.53 0-3.125-.399-4.679-1.196a.805.805 0 0 1-.064-.036l-8.61-5.252c-7.378-4.5-11.961-12.665-11.961-21.307v-60.485c0-3.146 1.642-5.902 4.391-7.37 2.963-1.583 6.59-1.372 9.464.55l6.531 3.892c8.396 5.615 13.389 14.95 13.398 24.999l.051 56.716c.037 3.533-1.535 6.632-4.204 8.281a8.148 8.148 0 0 1-4.317 1.208zm-3.734-2.96c2.503 1.275 4.988 1.292 7 .049 2.068-1.278 3.285-3.733 3.255-6.569l-.051-56.725a28.028 28.028 0 0 0-12.466-23.311l-6.531-3.892c-2.303-1.539-5.142-1.711-7.454-.477-2.119 1.132-3.333 3.175-3.333 5.606v60.485c0 7.95 4.216 15.459 11.003 19.6z"/><path d="m604.919 1093.685-8.61-5.252a23.959 23.959 0 0 1-11.482-20.453v-60.485c0-6.275 7.084-9.477 12.299-5.989l6.575 3.92a29.078 29.078 0 0 1 12.91 24.141l.051 56.716c.067 6.415-5.554 10.577-11.743 7.402z" fill="#fff"/><path d="M609.142 1095.77c-1.53 0-3.125-.399-4.679-1.196a.805.805 0 0 1-.064-.036l-8.61-5.252c-7.377-4.5-11.961-12.665-11.961-21.307v-60.485c0-3.146 1.642-5.901 4.391-7.37 2.964-1.583 6.591-1.373 9.465.55l6.531 3.892c8.397 5.615 13.389 14.95 13.397 24.999l.051 56.716c.036 3.533-1.535 6.632-4.205 8.281a8.142 8.142 0 0 1-4.316 1.208zm-3.734-2.959c2.504 1.274 4.987 1.292 6.999.049 2.068-1.277 3.285-3.733 3.256-6.568l-.051-56.726a28.026 28.026 0 0 0-12.466-23.311l-6.531-3.892c-2.304-1.54-5.143-1.711-7.454-.476-2.118 1.131-3.333 3.175-3.333 5.606v60.485c0 7.95 4.216 15.459 11.002 19.6z"/><path d="M641.232 1425.356 80.11 1101.805a16.496 16.496 0 0 1-8.255-14.2l-.851-156.543c-.013-2.429 2.613-3.958 4.719-2.746l564.044 324.562a14.552 14.552 0 0 1 7.294 12.688l-.816 156.27c-.001 3.013-2.402 5.025-5.013 3.52z" fill="#fff"/><path d="M643.004 1426.865c-.753 0-1.529-.215-2.271-.643L79.61 1102.671a17.555 17.555 0 0 1-8.756-15.061l-.851-156.544c-.008-1.503.763-2.852 2.062-3.608s2.853-.76 4.156-.01l564.044 324.562a15.58 15.58 0 0 1 7.795 13.56l-.816 156.27c0 1.953-.89 3.683-2.322 4.51a3.793 3.793 0 0 1-1.918.515zm-1.272-2.375c.791.456 1.548.5 2.19.129.815-.471 1.322-1.538 1.322-2.784l.816-156.275a13.58 13.58 0 0 0-6.792-11.816L75.224 929.182a2.128 2.128 0 0 0-2.152.005 2.127 2.127 0 0 0-1.068 1.869l.851 156.544a15.548 15.548 0 0 0 7.755 13.339z"/><path d="M445.577 1229.555c-.438 5.52-6.089 8.484-10.879 5.706l-329.023-190.856a26.024 26.024 0 0 1-12.937-21.961l-.068-3.287c-.127-6.172 5.668-9.589 11.007-6.491l329.843 190.405c8.492 4.902 13.064 14.153 12.289 23.928z" fill="#fff"/><path d="M438.524 1237.313a8.626 8.626 0 0 1-4.329-1.188l-329.023-190.856c-8.094-4.707-13.242-13.445-13.435-22.806l-.068-3.287c-.067-3.265 1.407-6.107 3.945-7.604s5.739-1.412 8.564.228l329.841 190.403c8.705 5.025 13.604 14.556 12.786 24.874l-.233 2.565c-.235 2.933-1.857 5.46-4.339 6.762a7.941 7.941 0 0 1-3.709.909zM99.575 1012.498c-1.038 0-2.04.266-2.944.798-1.935 1.141-3.015 3.27-2.962 5.84l.068 3.287c.179 8.668 4.945 16.759 12.44 21.117L435.2 1234.395c1.98 1.148 4.205 1.235 6.105.239 1.9-.997 3.094-2.877 3.274-5.159l.001-.011.232-2.556c.755-9.53-3.763-18.336-11.793-22.972l-329.843-190.405c-1.185-.687-2.417-1.033-3.601-1.033z"/><path d="m494.434 1298.807-8.61-5.252a23.959 23.959 0 0 1-11.482-20.453v-60.485c0-6.275 7.084-9.477 12.299-5.989l6.575 3.92a29.075 29.075 0 0 1 12.91 24.141l.051 56.716c.066 6.415-5.554 10.577-11.743 7.402z" fill="#fff"/><path d="M498.656 1300.892c-1.531 0-3.125-.399-4.679-1.196a.805.805 0 0 1-.064-.036l-8.61-5.252c-7.377-4.5-11.961-12.665-11.961-21.307v-60.485c0-3.146 1.642-5.901 4.391-7.37 2.964-1.583 6.59-1.373 9.465.55l6.531 3.892c8.397 5.615 13.389 14.95 13.397 24.999l.051 56.716c.037 3.532-1.535 6.632-4.204 8.281a8.146 8.146 0 0 1-4.317 1.208zm-3.734-2.959c2.503 1.275 4.988 1.292 7 .049 2.068-1.278 3.285-3.733 3.255-6.568l-.051-56.726a28.026 28.026 0 0 0-12.466-23.311l-6.531-3.892c-2.304-1.54-5.143-1.711-7.454-.476-2.118 1.131-3.333 3.175-3.333 5.606v60.485c0 7.95 4.216 15.459 11.002 19.6z"/><path d="m550.126 1330.768-8.61-5.253a23.959 23.959 0 0 1-11.482-20.453v-60.485c0-6.275 7.084-9.477 12.299-5.989l6.575 3.92a29.075 29.075 0 0 1 12.91 24.141l.051 56.716c.067 6.417-5.554 10.579-11.743 7.403z" fill="#fff"/><path d="M554.349 1332.854c-1.53 0-3.125-.399-4.679-1.196a.805.805 0 0 1-.064-.036l-8.61-5.252c-7.378-4.5-11.961-12.665-11.961-21.307v-60.485c0-3.146 1.642-5.901 4.391-7.37 2.964-1.583 6.59-1.373 9.465.55l6.531 3.892c8.396 5.614 13.389 14.949 13.398 24.999l.051 56.716c.037 3.533-1.535 6.632-4.204 8.281a8.154 8.154 0 0 1-4.318 1.208zm-3.734-2.96c2.503 1.275 4.988 1.293 7 .049 2.068-1.278 3.285-3.733 3.255-6.569l-.051-56.725a28.028 28.028 0 0 0-12.466-23.311l-6.531-3.892c-2.304-1.54-5.143-1.711-7.454-.476-2.118 1.131-3.333 3.175-3.333 5.606v60.485c0 7.95 4.216 15.459 11.003 19.6z"/><path d="m604.919 1362.685-8.61-5.252a23.959 23.959 0 0 1-11.482-20.453v-60.485c0-6.275 7.084-9.477 12.299-5.989l6.575 3.92a29.076 29.076 0 0 1 12.91 24.141l.051 56.716c.067 6.415-5.554 10.577-11.743 7.402z" fill="#dbf301"/><path d="M609.142 1364.77c-1.53 0-3.125-.399-4.679-1.196a.805.805 0 0 1-.064-.036l-8.61-5.252c-7.377-4.5-11.961-12.665-11.961-21.307v-60.485c0-3.146 1.642-5.901 4.391-7.37 2.964-1.583 6.591-1.373 9.465.55l6.531 3.892c8.397 5.615 13.389 14.95 13.397 24.999l.051 56.716c.036 3.533-1.535 6.632-4.205 8.281a8.142 8.142 0 0 1-4.316 1.208zm-3.734-2.959c2.504 1.274 4.987 1.292 6.999.049 2.068-1.277 3.285-3.733 3.256-6.568l-.051-56.726a28.026 28.026 0 0 0-12.466-23.311l-6.531-3.892c-2.304-1.54-5.143-1.711-7.454-.476-2.118 1.131-3.333 3.175-3.333 5.606v60.485c0 7.95 4.216 15.459 11.002 19.6z"/><path d="M599.109 224.638 401.473 340.415a81.718 81.718 0 0 1-82.44.1L117.71 223.237c-14.893-8.676-14.978-30.162-.154-38.956l194.51-115.387a87.956 87.956 0 0 1 89.538-.126l196.712 110.936c17.324 9.769 17.76 34.56.793 44.934z" fill="#fff"/><path d="M360.166 352.605a82.68 82.68 0 0 1-41.637-11.225L117.206 224.101c-7.304-4.255-11.684-11.841-11.718-20.294s4.287-16.074 11.557-20.386l194.51-115.386a88.952 88.952 0 0 1 90.557-.127l196.696 110.927c8.447 4.764 13.593 13.397 13.764 23.094s-4.667 18.506-12.941 23.564l-.016.01-197.637 115.775a82.681 82.681 0 0 1-41.812 11.327zm-3.229-295.02a86.88 86.88 0 0 0-44.361 12.169L118.066 185.14c-6.654 3.947-10.608 10.922-10.577 18.658s4.04 14.68 10.725 18.574l201.322 117.279c25.133 14.641 56.335 14.603 81.432-.099L598.596 223.78c7.657-4.686 12.134-12.841 11.976-21.818-.158-8.98-4.923-16.975-12.746-21.387L401.113 69.639a86.937 86.937 0 0 0-44.176-12.054zm242.172 167.053h.01z"/><ellipse cx="153.543" cy="203.137" fill="#adc4cb" rx="9.735" ry="6.11"/><path d="M153.543 210.247c-6.02 0-10.735-3.123-10.735-7.11s4.715-7.11 10.735-7.11 10.735 3.123 10.735 7.11-4.715 7.11-10.735 7.11zm0-12.22c-4.735 0-8.735 2.34-8.735 5.11s4 5.11 8.735 5.11 8.735-2.34 8.735-5.11-4-5.11-8.735-5.11z"/><ellipse cx="355.658" cy="87.217" fill="#adc4cb" rx="9.735" ry="6.11"/><path d="M355.658 94.327c-6.02 0-10.735-3.123-10.735-7.11s4.715-7.11 10.735-7.11 10.735 3.123 10.735 7.11-4.715 7.11-10.735 7.11zm0-12.219c-4.735 0-8.735 2.34-8.735 5.11s4 5.11 8.735 5.11 8.735-2.34 8.735-5.11-4.001-5.11-8.735-5.11z"/><ellipse cx="561.84" cy="205.558" fill="#adc4cb" rx="9.735" ry="6.11"/><path d="M561.84 212.668c-6.02 0-10.735-3.123-10.735-7.11s4.715-7.11 10.735-7.11 10.735 3.123 10.735 7.11-4.715 7.11-10.735 7.11zm0-12.22c-4.735 0-8.735 2.34-8.735 5.11s4 5.11 8.735 5.11 8.735-2.34 8.735-5.11-4-5.11-8.735-5.11z"/><ellipse cx="359.671" cy="322.626" fill="#adc4cb" rx="9.735" ry="6.11"/><path d="M359.67 329.736c-6.02 0-10.735-3.123-10.735-7.11s4.715-7.11 10.735-7.11 10.735 3.123 10.735 7.11-4.715 7.11-10.735 7.11zm0-12.22c-4.735 0-8.735 2.34-8.735 5.11s4 5.11 8.735 5.11 8.735-2.34 8.735-5.11-4-5.11-8.735-5.11z"/><ellipse cx="360.999" cy="200.453" rx="149.124" ry="87.069"/><path d="M360.998 288.522c-82.779 0-150.124-39.507-150.124-88.069s67.345-88.069 150.124-88.069 150.125 39.508 150.125 88.069-67.346 88.069-150.125 88.069zm0-174.138c-81.676 0-148.124 38.61-148.124 86.069s66.448 86.069 148.124 86.069 148.125-38.61 148.125-86.069-66.448-86.069-148.125-86.069z"/><path d="M451.559 250.864c-14.394 8.816-26.362 15.5-42.248 8.913-13.296-5.512-26.577-12.249-37.856-21.253 5.358 11.647 23.533 31.64 23.533 31.64-16.018 6.773-52.809 6.263-69.096.46-5.549-11.291-7.141-26.254-3.681-38.338-9.231 9.188-17.176 19.247-23.14 30.842-12.64 4.527-40.075-17.426-48.293-26.115 0 0 13.407-21.012 44.313-29.264-4.885 1.304-16.915.865-28.348 3.18-14.496 2.935-28.3 8.553-28.3 8.553s-3.428-8.875-3.428-19.03c0-13.135 3.859-18.478 3.859-18.478s15.149-3.791 32.706-4.685c12.155-.619 27.102-1.921 34.339 2.075-17.211-9.503-54.265-14.838-54.265-14.838 23.925-22.659 50.64-25.176 50.64-25.176s42.143 15.529 46.032 24.347c-4.723-10.711-21.215-31.943-21.215-31.943 16.29-6.857 50.053-5.481 66.671.031 5.542 11.227 7.167 26.133 3.723 38.162 9.178-9.134 23.023-30.719 23.023-30.719s15.468.332 28.704 8.457c15.408 9.458 19.815 17.959 19.815 17.959s-5.208 6.127-18.878 15.153c-12.329 8.142-25.476 13.612-25.476 13.612s20.25-.635 31.552-2.519c11.713-1.952 24.987-9.194 24.987-9.194s3.827 10.953 4.175 16.752c1.095 18.211-4.566 22.505-4.566 22.505s-12.883 5.3-27.135 5.661c-15.422.39-39.78-4.784-39.78-4.784s36.408 9.609 54.331 13.988l.139.294.021.301-.096.296c-4.98 5.067-10.733 9.401-16.762 13.155z" fill="#87c159"/><path d="M360.777 276.065c-13.578 0-27.155-1.624-35.221-4.498a.997.997 0 0 1-.562-.501c-5.181-10.542-6.879-24.084-4.604-35.5-8.714 9.074-15.416 18.269-20.431 28.02a1.003 1.003 0 0 1-.552.484c-1.278.458-2.685.669-4.185.669-14.779.003-38.941-20.451-45.172-27.038a1 1 0 0 1-.116-1.225c.122-.191 11.184-17.158 35.603-26.657l-.389.026c-5.301.351-11.899.788-18.209 2.066-14.232 2.882-27.984 8.443-28.122 8.499a1.001 1.001 0 0 1-1.309-.566c-.143-.37-3.495-9.167-3.495-19.39 0-13.305 3.883-18.835 4.049-19.063.138-.191.339-.327.568-.385.152-.038 15.445-3.825 32.898-4.714 1.188-.061 2.403-.127 3.635-.196 6.704-.37 13.933-.768 20.134-.288-18.234-6.557-43.481-10.248-43.787-10.292a.998.998 0 0 1-.545-1.716c23.898-22.634 50.963-25.42 51.233-25.446a1.01 1.01 0 0 1 .439.057c1.438.53 29.669 10.992 41.633 19.743-6.449-10.942-17.814-25.612-17.951-25.788a1 1 0 0 1 .401-1.534c16.447-6.923 50.306-5.658 67.375.003.254.084.463.267.582.507 5.16 10.455 6.881 23.856 4.673 35.177 8.826-9.94 20.208-27.635 20.334-27.831.188-.293.528-.473.863-.46.643.014 15.892.432 29.205 8.604 15.467 9.494 19.995 17.994 20.18 18.351a1 1 0 0 1-.126 1.108c-.216.255-5.457 6.339-19.088 15.34-7.764 5.126-15.919 9.23-20.894 11.566 6.756-.318 18.628-1.022 26.254-2.293 11.406-1.901 24.542-9.014 24.673-9.086a1 1 0 0 1 1.422.548c.158.453 3.877 11.152 4.229 17.021 1.115 18.531-4.711 23.173-4.959 23.362a1.015 1.015 0 0 1-.224.128c-.533.219-13.218 5.375-27.49 5.736-5.48.139-12.117-.427-18.393-1.214 11.213 2.915 24.433 6.316 33.156 8.447.293.072.538.272.667.544l.139.294a.998.998 0 0 1 .093.359l.021.302c.009.127-.007.256-.046.377l-.096.296a1.003 1.003 0 0 1-.238.392c-4.626 4.706-10.329 9.181-16.948 13.303l-.006.004c-15.806 9.681-27.35 15.536-43.153 8.984-14.115-5.852-25.186-11.821-34.427-18.589 6.815 11.475 21.065 27.203 21.226 27.38a1 1 0 0 1-.35 1.593c-8.121 3.436-21.359 4.98-34.597 4.98zm-34.166-6.248c15.406 5.297 50.117 6.133 66.674-.052-3.871-4.345-18.027-20.583-22.739-30.823a1 1 0 0 1 1.532-1.199c9.806 7.829 21.759 14.536 37.615 21.11 14.93 6.189 26.061.518 41.339-8.84 6.226-3.877 11.616-8.066 16.033-12.459-18.04-4.432-53.035-13.664-53.393-13.758a1 1 0 0 1 .464-1.945c.242.052 24.419 5.143 39.546 4.762 13.081-.331 25.159-4.946 26.631-5.527.636-.612 5.065-5.489 4.097-21.58-.272-4.533-2.786-12.475-3.749-15.379-3.391 1.753-14.277 7.086-24.251 8.748-11.239 1.873-31.482 2.526-31.686 2.532a1.019 1.019 0 0 1-1.009-.788 1.001 1.001 0 0 1 .593-1.135c.131-.054 13.206-5.531 25.309-13.523 11.121-7.343 16.628-12.792 18.19-14.446-1.302-2.055-6.446-9.213-19.1-16.98-11.457-7.032-24.802-8.128-27.651-8.285-2.153 3.325-14.351 21.947-22.847 30.404a1 1 0 0 1-1.667-.984c3.269-11.418 1.901-25.917-3.475-37.068-16.452-5.31-48.025-6.574-64.359-.411 3.412 4.457 16.344 21.622 20.523 31.085l.007.017a1 1 0 0 1-1.83.808l-.004-.01c-3.056-6.874-33.466-19.367-45.237-23.72-2.533.304-26.463 3.658-48.315 23.48 8.099 1.276 37.509 6.336 52.548 14.639a1 1 0 0 1-.967 1.751l-.026-.014c-6.287-3.449-18.956-2.75-30.135-2.133-1.234.068-2.452.135-3.643.196-15.716.801-29.659 3.976-32.128 4.563-.741 1.26-3.488 6.673-3.488 17.601 0 7.953 2.174 15.192 3.025 17.719 3.413-1.323 15.278-5.747 27.504-8.222 6.441-1.304 13.112-1.746 18.473-2.101 4.151-.275 7.738-.512 9.806-1.062l.01-.002a1 1 0 0 1 .516 1.932c-27.116 7.24-40.73 24.63-43.283 28.193 4.539 4.644 13.218 11.866 21.737 17.273 10.898 6.918 19.376 9.72 24.567 8.125 5.569-10.725 13.142-20.782 23.136-30.73a.999.999 0 0 1 1.667.984c-3.289 11.488-1.935 26.062 3.44 37.254zm124.948-18.953h.01z"/><ellipse cx="359.521" cy="201.15" fill="#dbf301" rx="42.78" ry="25.114"/><path d="M359.521 227.264c-24.141 0-43.78-11.715-43.78-26.114s19.64-26.114 43.78-26.114 43.78 11.715 43.78 26.114-19.639 26.114-43.78 26.114zm0-50.228c-23.038 0-41.78 10.818-41.78 24.114s18.743 24.114 41.78 24.114 41.78-10.818 41.78-24.114-18.742-24.114-41.78-24.114z"/><ellipse cx="359.31" cy="201.044" fill="#87c159" rx="33.64" ry="17.993"/><path d="M359.31 220.037c-19.101 0-34.641-8.52-34.641-18.993s15.54-18.993 34.641-18.993 34.641 8.52 34.641 18.993-15.54 18.993-34.641 18.993zm0-35.985c-17.998 0-32.641 7.623-32.641 16.993s14.643 16.993 32.641 16.993 32.641-7.623 32.641-16.993-14.643-16.993-32.641-16.993z"/><path d="M957.141 425.724 759.505 541.501a81.718 81.718 0 0 1-82.44.1L475.742 424.323c-14.893-8.676-14.978-30.162-.154-38.956l194.51-115.387a87.956 87.956 0 0 1 89.538-.126L956.349 380.79c17.323 9.769 17.76 34.56.792 44.934z" fill="#fff"/><path d="M718.198 553.691a82.68 82.68 0 0 1-41.637-11.225L475.239 425.187c-7.304-4.255-11.684-11.842-11.718-20.294-.033-8.453 4.287-16.073 11.557-20.386l194.51-115.386a88.954 88.954 0 0 1 90.557-.128L956.84 379.919c8.447 4.764 13.593 13.397 13.764 23.094.17 9.697-4.667 18.506-12.942 23.564l-.016.01L760.01 542.364a82.676 82.676 0 0 1-41.812 11.327zm-3.228-295.02a86.874 86.874 0 0 0-44.361 12.169l-194.51 115.386c-6.654 3.947-10.608 10.922-10.577 18.658s4.04 14.68 10.725 18.574l201.322 117.279c25.133 14.641 56.335 14.603 81.432-.099l197.628-115.773c7.658-4.686 12.135-12.841 11.977-21.818-.158-8.98-4.923-16.975-12.746-21.387L759.145 270.725a86.934 86.934 0 0 0-44.175-12.054zm242.171 167.053h.01z"/><ellipse cx="511.575" cy="404.223" fill="#adc4cb" rx="9.735" ry="6.11"/><path d="M511.576 411.333c-6.02 0-10.735-3.123-10.735-7.11s4.715-7.11 10.735-7.11 10.735 3.123 10.735 7.11-4.716 7.11-10.735 7.11zm0-12.22c-4.735 0-8.735 2.34-8.735 5.11s4 5.11 8.735 5.11 8.735-2.34 8.735-5.11-4.001-5.11-8.735-5.11z"/><ellipse cx="713.69" cy="288.303" fill="#adc4cb" rx="9.735" ry="6.11"/><path d="M713.69 295.413c-6.02 0-10.735-3.123-10.735-7.11s4.715-7.11 10.735-7.11 10.735 3.123 10.735 7.11-4.715 7.11-10.735 7.11zm0-12.22c-4.735 0-8.735 2.34-8.735 5.11s4 5.11 8.735 5.11 8.735-2.34 8.735-5.11-4-5.11-8.735-5.11z"/><ellipse cx="919.872" cy="406.644" fill="#adc4cb" rx="9.735" ry="6.11"/><path d="M919.872 413.754c-6.02 0-10.735-3.123-10.735-7.11s4.715-7.11 10.735-7.11 10.735 3.123 10.735 7.11-4.714 7.11-10.735 7.11zm0-12.22c-4.735 0-8.735 2.34-8.735 5.11s4 5.11 8.735 5.11 8.735-2.34 8.735-5.11-4-5.11-8.735-5.11z"/><ellipse cx="717.703" cy="523.712" fill="#adc4cb" rx="9.735" ry="6.11"/><path d="M717.703 530.822c-6.02 0-10.735-3.123-10.735-7.11s4.715-7.11 10.735-7.11 10.735 3.123 10.735 7.11-4.715 7.11-10.735 7.11zm0-12.22c-4.735 0-8.735 2.34-8.735 5.11s4 5.11 8.735 5.11 8.735-2.34 8.735-5.11-4.001-5.11-8.735-5.11z"/><ellipse cx="719.031" cy="401.539" rx="149.124" ry="87.069"/><path d="M719.031 489.608c-82.779 0-150.124-39.508-150.124-88.069s67.345-88.069 150.124-88.069 150.125 39.507 150.125 88.069-67.346 88.069-150.125 88.069zm0-174.138c-81.676 0-148.124 38.61-148.124 86.069 0 47.458 66.448 86.069 148.124 86.069s148.125-38.61 148.125-86.069c-.001-47.459-66.449-86.069-148.125-86.069z"/><path d="M809.591 451.95c-14.394 8.816-26.362 15.5-42.248 8.913-13.296-5.512-26.577-12.249-37.856-21.253 5.358 11.647 23.533 31.64 23.533 31.64-16.018 6.773-52.809 6.263-69.096.46-5.549-11.291-7.141-26.254-3.681-38.338-9.231 9.188-17.176 19.247-23.14 30.842-12.64 4.527-40.075-17.426-48.293-26.115 0 0 13.407-21.012 44.313-29.264-4.885 1.304-16.915.865-28.348 3.18-14.497 2.935-28.3 8.552-28.3 8.552s-3.428-8.875-3.428-19.03c0-13.135 3.859-18.478 3.859-18.478s15.149-3.791 32.706-4.685c12.155-.619 27.102-1.921 34.339 2.075-17.211-9.503-54.265-14.838-54.265-14.838 23.925-22.659 50.64-25.176 50.64-25.176s42.143 15.529 46.032 24.347c-4.723-10.711-21.215-31.943-21.215-31.943 16.29-6.857 50.053-5.481 66.672.031 5.542 11.227 7.167 26.133 3.723 38.162 9.178-9.134 23.023-30.719 23.023-30.719s15.468.332 28.704 8.457c15.408 9.458 19.815 17.959 19.815 17.959s-5.208 6.127-18.878 15.153c-12.329 8.142-25.476 13.612-25.476 13.612s20.25-.635 31.552-2.519c11.713-1.952 24.987-9.194 24.987-9.194s3.827 10.953 4.175 16.752c1.095 18.211-4.566 22.505-4.566 22.505s-12.883 5.3-27.135 5.661c-15.422.39-39.78-4.784-39.78-4.784s36.408 9.609 54.331 13.988l.139.294.021.301-.096.296c-4.981 5.068-10.734 9.402-16.763 13.156z" fill="#87c159"/><path d="M718.81 477.15c-13.578 0-27.155-1.624-35.221-4.498a.997.997 0 0 1-.562-.501c-5.181-10.541-6.879-24.083-4.604-35.5-8.713 9.073-15.415 18.268-20.431 28.021a1.003 1.003 0 0 1-.552.484c-1.278.458-2.685.669-4.186.669-14.779.003-38.941-20.452-45.171-27.038a1 1 0 0 1-.116-1.225c.122-.191 11.184-17.158 35.603-26.657l-.39.026c-5.301.351-11.898.788-18.208 2.065-14.232 2.882-27.984 8.443-28.122 8.499a1.001 1.001 0 0 1-1.309-.566c-.143-.37-3.495-9.167-3.495-19.39 0-13.305 3.883-18.835 4.049-19.063.138-.191.339-.327.568-.385.152-.038 15.445-3.824 32.898-4.714 1.187-.06 2.401-.127 3.632-.195 6.706-.37 13.936-.769 20.138-.288-18.235-6.558-43.482-10.248-43.788-10.292a.998.998 0 0 1-.545-1.716c23.898-22.634 50.963-25.42 51.233-25.446a.993.993 0 0 1 .439.057c1.438.53 29.669 10.992 41.633 19.743-6.449-10.942-17.814-25.612-17.951-25.788a1.003 1.003 0 0 1 .401-1.535c16.445-6.923 50.305-5.659 67.375.003.254.084.463.267.582.507 5.16 10.455 6.881 23.856 4.673 35.177 8.827-9.94 20.209-27.635 20.334-27.831.188-.293.512-.463.863-.46.643.014 15.892.432 29.205 8.604 15.467 9.494 19.995 17.994 20.18 18.351a1 1 0 0 1-.126 1.108c-.216.255-5.457 6.339-19.088 15.34-7.764 5.126-15.919 9.23-20.894 11.566 6.757-.319 18.628-1.023 26.254-2.294 11.406-1.901 24.542-9.014 24.673-9.085a1 1 0 0 1 1.422.548c.158.453 3.877 11.152 4.229 17.021 1.115 18.531-4.711 23.173-4.959 23.362a1.015 1.015 0 0 1-.224.128c-.533.219-13.218 5.375-27.49 5.736-5.488.139-12.117-.427-18.394-1.214 11.214 2.915 24.434 6.316 33.157 8.447.293.072.538.272.667.544l.139.294a.998.998 0 0 1 .093.359l.021.302c.009.127-.007.256-.046.377l-.096.296a1.003 1.003 0 0 1-.238.392c-4.625 4.704-10.327 9.18-16.948 13.303l-.006.004c-15.806 9.681-27.349 15.537-43.153 8.984-14.115-5.852-25.186-11.821-34.427-18.589 6.815 11.474 21.065 27.203 21.226 27.38a1 1 0 0 1-.35 1.593c-8.121 3.436-21.36 4.98-34.597 4.98zm-34.167-6.247c15.406 5.297 50.117 6.133 66.674-.052-3.871-4.345-18.027-20.582-22.739-30.823a1 1 0 0 1 1.532-1.199c9.807 7.829 21.759 14.537 37.615 21.11 14.927 6.189 26.06.519 41.34-8.84 6.227-3.879 11.617-8.068 16.032-12.459-18.04-4.431-53.035-13.663-53.393-13.758a1 1 0 0 1 .464-1.945c.242.052 24.404 5.145 39.546 4.762 13.081-.331 25.159-4.946 26.631-5.527.636-.612 5.065-5.489 4.097-21.58-.272-4.533-2.786-12.475-3.749-15.379-3.391 1.753-14.277 7.085-24.251 8.748-11.239 1.873-31.483 2.526-31.686 2.532a1.024 1.024 0 0 1-1.009-.788 1 1 0 0 1 .593-1.135c.131-.054 13.207-5.531 25.31-13.523 11.121-7.343 16.628-12.792 18.19-14.446-1.302-2.055-6.446-9.213-19.1-16.98-11.472-7.041-24.804-8.13-27.651-8.285-2.153 3.325-14.351 21.948-22.847 30.404a.998.998 0 0 1-1.214.152.998.998 0 0 1-.453-1.136c3.269-11.418 1.901-25.917-3.475-37.069-16.452-5.309-48.025-6.574-64.359-.411 3.412 4.457 16.344 21.622 20.523 31.084l.007.017a1 1 0 0 1-1.83.808l-.004-.01c-3.056-6.874-33.466-19.367-45.237-23.72-2.533.304-26.463 3.658-48.315 23.48 8.099 1.276 37.508 6.335 52.548 14.639a1 1 0 0 1-.967 1.751c-6.277-3.466-18.967-2.765-30.164-2.147-1.233.068-2.45.135-3.64.196-15.726.801-29.661 3.976-32.128 4.563-.741 1.26-3.488 6.673-3.488 17.601 0 7.953 2.174 15.192 3.025 17.719 3.413-1.323 15.278-5.747 27.504-8.222 6.44-1.304 13.112-1.746 18.472-2.101 4.158-.275 7.75-.513 9.816-1.065a.999.999 0 1 1 .516 1.932c-27.116 7.24-40.73 24.63-43.283 28.193 4.539 4.644 13.217 11.865 21.737 17.273 10.898 6.918 19.376 9.72 24.567 8.125 5.57-10.726 13.142-20.783 23.136-30.73a.999.999 0 0 1 1.667.984c-3.289 11.491-1.935 26.065 3.44 37.257zm124.948-18.953h.01z"/><ellipse cx="717.553" cy="402.236" fill="#dbf301" rx="42.78" ry="25.114"/><path d="M717.553 428.35c-24.141 0-43.78-11.715-43.78-26.115 0-14.399 19.64-26.114 43.78-26.114s43.78 11.715 43.78 26.114c0 14.4-19.639 26.115-43.78 26.115zm0-50.229c-23.038 0-41.78 10.818-41.78 24.114 0 13.297 18.743 24.115 41.78 24.115s41.78-10.818 41.78-24.115c0-13.296-18.742-24.114-41.78-24.114z"/><ellipse cx="717.342" cy="402.13" fill="#87c159" rx="33.64" ry="17.993"/><path d="M717.342 421.123c-19.101 0-34.641-8.52-34.641-18.993s15.54-18.993 34.641-18.993 34.64 8.52 34.64 18.993-15.539 18.993-34.64 18.993zm0-35.985c-17.998 0-32.641 7.623-32.641 16.993s14.643 16.993 32.641 16.993 32.64-7.623 32.64-16.993-14.642-16.993-32.64-16.993z"/></svg></g><g transform="translate(241.2 1648.8) rotate(0.0 672.0 568.1999999999999) scale(1.428289049996493 1.429727101279885)"><svg width="940.986" height="794.837" viewBox="0 0 940.986 794.837"><path d="M663.501 436.895 334.409 614.61v9.987L598.79 791.722l341.196-192.094v-3.987z"/><path d="M598.79 792.722a.996.996 0 0 1-.534-.155L333.875 625.443a1 1 0 0 1-.466-.845v-9.987a1 1 0 0 1 .525-.88l329.092-177.715a.997.997 0 0 1 .973.013l276.485 158.746a.998.998 0 0 1 .502.867v3.988c0 .361-.195.694-.509.872L599.28 792.594a1.004 1.004 0 0 1-.49.128zM335.409 624.047 598.82 790.558l340.166-191.514v-2.824l-275.5-158.181-328.077 177.168z"/><path d="M663.501 426.907 334.409 614.61l274.546 168.893 331.031-187.862z" fill="#87c159"/><path d="M608.955 784.503a.998.998 0 0 1-.524-.148L333.885 615.462a1 1 0 0 1 .028-1.72l329.092-187.703c.316-.18.706-.175 1.017.015l276.485 168.733a1.003 1.003 0 0 1-.027 1.724L609.45 784.373c-.154.087-.325.13-.495.13zM336.37 614.643l272.605 167.699 329.04-186.732-274.531-167.541z"/><path d="M857.3 642.097 579.145 472.344" fill="#87c159"/><path d="M857.299 643.097a.997.997 0 0 1-.52-.146L578.624 473.197a1.002 1.002 0 0 1 1.042-1.708l278.156 169.753a1.002 1.002 0 0 1-.523 1.855z"/><path d="M774.83 688.685 494.788 517.781" fill="#87c159"/><path d="M774.829 689.685a.997.997 0 0 1-.52-.146L494.267 518.634a1.002 1.002 0 0 1 1.042-1.708L775.351 687.83a1.002 1.002 0 0 1-.522 1.855z"/><path d="M693.199 735.694 410.581 563.217" fill="#87c159"/><path d="M693.198 736.694a.997.997 0 0 1-.52-.146L410.059 564.071a1.002 1.002 0 0 1 1.042-1.708L693.72 734.841c.471.288.62.903.333 1.375a1.002 1.002 0 0 1-.855.478z"/><path d="m804.319 434.688 69.759 120.814-9.479 5.185-227.146-138.333-47.999-92.94 10.176-5.55z" fill="#fff"/><path d="M864.599 561.687a.997.997 0 0 1-.52-.146L636.933 423.208a1.002 1.002 0 0 1-.369-.395l-47.999-92.939a1 1 0 0 1 .41-1.337l10.175-5.55a.994.994 0 0 1 .955-.001L804.794 433.81a1 1 0 0 1 .39.379l69.759 120.814a.998.998 0 0 1-.386 1.377l-9.478 5.185a1.01 1.01 0 0 1-.48.122zM638.213 421.646l226.413 137.887 8.073-4.417-69.105-119.683-203.962-110.431-8.84 4.822z"/><path d="m797.526 442.975 67.073 117.712-227.146-138.333-47.999-92.94z" fill="#fff"/><path d="M864.599 561.687a.999.999 0 0 1-.52-.146L636.933 423.208a1.002 1.002 0 0 1-.369-.395l-47.999-92.939a1 1 0 0 1 1.367-1.337l208.071 113.561c.163.089.298.222.39.383l67.074 117.711a.999.999 0 0 1-.868 1.495zM638.213 421.646 861.815 557.82l-65.018-114.103-204.956-111.861z"/><path d="m797.191 443.802 67.408 116.885-93.71-57.681z"/><path d="M864.599 561.687c-.18 0-.362-.049-.524-.148l-93.71-57.68a1 1 0 0 1-.39-1.257l26.301-59.204c.153-.344.486-.573.861-.593a.98.98 0 0 1 .919.499l67.409 116.884a1 1 0 0 1-.866 1.499zm-92.441-59.074 89.602 55.151-64.454-111.76z"/><path d="m737.015 524.138-44.358 66.776a5.303 5.303 0 0 0 1.483 7.351l9.188 6.419 49.507-74.663-10.763-6.903a3.648 3.648 0 0 0-5.057 1.02z" fill="#adc4cb"/><path d="M703.327 605.683c-.203 0-.403-.062-.573-.18l-9.188-6.418c-1.383-.918-2.338-2.34-2.671-3.99s-.003-3.332.928-4.733l44.358-66.776a4.62 4.62 0 0 1 2.953-1.985 4.626 4.626 0 0 1 3.491.685l10.75 6.894a1.002 1.002 0 0 1 .293 1.395l-49.507 74.663a1.001 1.001 0 0 1-.647.43 1.31 1.31 0 0 1-.187.015zm36.73-82.175c-.175 0-.352.018-.527.053a2.63 2.63 0 0 0-1.682 1.13l-44.358 66.776c-.636.957-.861 2.104-.634 3.231s.88 2.098 1.837 2.733l8.367 5.845 48.38-72.963-9.908-6.354a2.653 2.653 0 0 0-1.475-.451zm-3.042.63h.01z"/><path d="m816.879 318.438 39.899 1.553 18.077 10.654c9.789 5.618 12.874 18.291 6.763 27.78L607.476 784.054c-6.175 9.587-18.797 12.622-28.656 6.891l-24.307-14.294-16.321-24.932z"/><path d="M589.545 794.848c-3.82 0-7.689-.982-11.227-3.039l-24.312-14.297a1.001 1.001 0 0 1-.33-.314l-16.321-24.932a1 1 0 0 1-.004-1.089l278.687-433.28a1.01 1.01 0 0 1 .88-.458l39.899 1.554a.998.998 0 0 1 .469.138l18.077 10.653c4.964 2.849 8.451 7.491 9.808 13.063s.393 11.297-2.712 16.119L608.316 784.595a22.29 22.29 0 0 1-18.771 10.253zm-34.324-18.941 24.105 14.175a20.3 20.3 0 0 0 27.308-6.571l274.142-425.628c2.806-4.356 3.677-9.528 2.451-14.563s-4.376-9.228-8.87-11.808l-17.87-10.531-39.077-1.521-278.026 432.254z"/><path d="M591.833 774.797c-6.175 9.587-18.797 12.622-28.656 6.891L9.683 459.903c-8.607-4.988-11.292-16.162-5.89-24.516L278.744 10.18c5.798-8.966 17.598-11.827 26.858-6.513l553.61 317.722c9.789 5.618 12.874 18.291 6.763 27.78z" fill="#fff"/><path d="M573.901 785.592c-3.82 0-7.688-.982-11.227-3.04L9.18 460.767c-4.401-2.55-7.479-6.68-8.668-11.627-1.188-4.947-.321-10.024 2.441-14.296L277.904 9.636C283.992.223 296.378-2.781 306.1 2.8l553.61 317.722c4.974 2.855 8.461 7.496 9.817 13.069 1.357 5.573.394 11.297-2.712 16.119L592.674 775.339l-.841-.542.841.542a22.295 22.295 0 0 1-18.773 10.253zM295.621 1.999c-6.275 0-12.398 3.096-16.037 8.723L4.633 435.93a16.265 16.265 0 0 0-2.176 12.743c1.06 4.41 3.804 8.091 7.728 10.365L563.68 780.824a20.3 20.3 0 0 0 27.312-6.568l274.142-425.628c2.806-4.356 3.676-9.528 2.451-14.563-1.226-5.035-4.376-9.228-8.87-11.808L305.105 4.534a19.016 19.016 0 0 0-9.484-2.535z"/></svg></g><g transform="translate(650.4 769.1999999999999) rotate(0.0 166.8 221.40000000000003) scale(1.749592233824401 1.7436846561263268)"><svg width="190.673" height="253.945" viewBox="0 0 190.673 253.945"><path d="M172.053 251.583s.01-.01.03-.02.04-.03.07-.05c.54-.3 1.05-.66 1.53-1.06 0 0 .01 0 .01-.01h.01c2.2-1.88 3.66-4.66 3.66-7.95v-118.66a34.357 34.357 0 0 0-3.634-15.386l11.939-9.808c2.988 5.153 4.006 9.939 4.006 16.104v118.66c0 3.18-1.37 5.89-3.45 7.75-2.42 2.17-9.34 7.06-12.52 9.29h-.01c0 .01-.01.01-.01.01-.76.53-1.31.91-1.53 1.06-.03.02-.05.04-.07.05s-.03.02-.03.02"/><path d="M172.052 252.584a.997.997 0 0 1-.716-1.698 1.19 1.19 0 0 1 .195-.156l.069-.05a251.988 251.988 0 0 0 1.529-1.062c2.086-1.819 3.233-4.345 3.233-7.124v-118.66a33.55 33.55 0 0 0-3.529-14.938 1 1 0 0 1 .26-1.22l11.938-9.808a.999.999 0 0 1 1.501.271c2.941 5.071 4.141 9.882 4.141 16.606v118.66c0 3.297-1.344 6.314-3.783 8.495-1.76 1.578-6.003 4.728-12.612 9.364l-.02.013c-.513.422-1.039.786-1.568 1.084-.014.01-.029.021-.046.031a.994.994 0 0 1-.591.193zm.582-.187zm.131-.112v.001-.001zm.003-.003-.002.002.002-.002zm2.204-143.562a35.56 35.56 0 0 1 3.391 15.114v118.66c0 1.359-.227 2.668-.663 3.891 4.82-3.461 6.936-5.151 7.854-5.975 2.012-1.798 3.118-4.286 3.118-7.006V114.743c0-5.88-.964-10.195-3.297-14.571l-10.403 8.547z"/><path d="m4.713 12.283.45-.34c2.01-1.51 10.21-7.65 12.42-9.17 2.96-2.04 7-2.49 10.56-.45l144.23 82.58c5.35 3.065 10.307 8.583 13.294 13.736l-11.939 9.808a34.383 34.383 0 0 0-13.666-14.454L15.843 11.413c-3.61-2.07-7.71-1.58-10.68.53l-.45.34" fill="#fff"/><path d="M173.728 109.448a1 1 0 0 1-.895-.553 33.296 33.296 0 0 0-13.269-14.034L15.345 12.281c-3.045-1.747-6.719-1.566-9.592.469l-.441.333a1 1 0 1 1-1.199-1.6l.445-.337c2.756-2.07 10.357-7.751 12.458-9.196 3.494-2.409 7.95-2.599 11.623-.494L172.87 84.035c5.066 2.903 10.302 8.307 13.662 14.102.245.424.148.963-.23 1.274l-11.938 9.808a1.002 1.002 0 0 1-.635.227zM10.919 9.086c1.858 0 3.72.484 5.421 1.46l144.219 82.58a35.288 35.288 0 0 1 13.485 13.768l10.323-8.481c-3.198-5.229-7.925-10.024-12.492-12.641L27.645 3.191c-2.999-1.719-6.638-1.565-9.495.406-1.252.861-4.511 3.267-7.499 5.492.089-.002.179-.003.268-.003z"/><path d="M160.062 93.993 15.838 11.416C9.23 7.632 1 12.403 1 20.019V137.77a33.972 33.972 0 0 0 17.026 29.444l8.364 4.908-.157 32.825 34.386-12.737 101.022 59.284c6.96 4.084 15.724-.934 15.724-9.004V123.838a34.39 34.39 0 0 0-17.302-29.844z" fill="#fff"/><path d="M166.924 253.949c-1.99 0-3.979-.531-5.788-1.593L60.522 193.313l-33.94 12.573a.998.998 0 0 1-1.348-.942l.153-32.249-7.867-4.617C6.716 161.858 0 150.243 0 137.77V20.019c0-3.937 2.033-7.467 5.439-9.441 3.405-1.975 7.479-1.986 10.896-.03l144.224 82.577c10.982 6.288 17.806 18.057 17.806 30.712v118.652c0 4.153-2.151 7.864-5.756 9.928a11.415 11.415 0 0 1-5.686 1.531zM60.619 191.21c.176 0 .351.046.506.137l101.022 59.284c2.956 1.735 6.495 1.753 9.469.051 2.974-1.703 4.749-4.765 4.749-8.192V123.837c0-11.94-6.438-23.043-16.8-28.976L15.341 12.284c-2.789-1.598-6.117-1.589-8.898.024s-4.442 4.495-4.442 7.711V137.77c0 11.76 6.332 22.711 16.524 28.578l8.371 4.912c.308.18.496.511.494.867l-.149 31.381 33.031-12.236a.994.994 0 0 1 .348-.062z"/></svg></g><g transform="translate(492.0 1856.3999999999999) rotate(0.0 332.4 359.4) scale(1.4157754181520807 1.4193051565322985)"><svg width="469.566" height="506.445" viewBox="0 0 469.566 506.445"><path d="M170.962 1 1 263.321l222.045 128.842L363.72 174.526l-9.035-68.521z" fill="#adc4cb"/><path d="M223.045 393.163a.998.998 0 0 1-.501-.135L.498 264.186a1.004 1.004 0 0 1-.337-1.409L170.122.456a1 1 0 0 1 1.335-.324L355.18 105.137a.998.998 0 0 1 .495.738l9.036 68.521c.031.235-.023.474-.152.674L223.885 392.706a1 1 0 0 1-.84.457zM2.411 262.983 222.723 390.82l139.958-216.528-8.923-67.665L171.286 2.337z"/><path d="m354.742 106.316-28.936 45.917 37.914 22.234z" fill="#fff"/><path d="M363.72 175.467c-.175 0-.349-.046-.506-.137L325.3 153.096a1 1 0 0 1-.34-1.396l28.936-45.917a1 1 0 0 1 1.837.402l8.978 68.151a.998.998 0 0 1-.991 1.131zm-36.517-23.574 35.259 20.677-8.35-63.379z"/><path d="M276.977 116.657 108.048 377.385l220.697 128.06 139.821-216.316-8.981-68.105z" fill="#dbf301"/><path d="M328.744 506.445a.998.998 0 0 1-.501-.135L107.546 378.25a1 1 0 0 1-.337-1.409l168.929-260.728a.998.998 0 0 1 1.335-.324l182.608 104.367c.271.155.454.428.495.737l8.981 68.105a.998.998 0 0 1-.152.673l-139.82 216.317a1 1 0 0 1-.841.457zM109.458 377.047l218.964 127.054 139.104-215.206-8.868-67.249-181.356-103.652z"/><path d="m459.642 221.333-28.761 45.639 37.685 22.099z" fill="#fff"/><path d="M468.566 290.071c-.175 0-.349-.046-.506-.137l-37.684-22.099a1 1 0 0 1-.34-1.396l28.76-45.638a1 1 0 0 1 1.837.402l8.924 67.738a.998.998 0 0 1-.991 1.13zm-36.288-23.44 35.029 20.542-8.295-62.965z"/><path d="m328.84 311.974-22.781-74.922-9.915 14.416-134.514-77.401-36.551 56.483s133.943 77.591 134.29 77.813l-9.105 14.999z" fill="#87c159"/><path d="M250.261 324.362a1.002 1.002 0 0 1-.855-1.519l8.577-14.129c-11.321-6.575-132.134-76.561-133.408-77.299a.998.998 0 0 1-.338-1.409l36.552-56.483a.999.999 0 0 1 1.338-.323l133.715 76.941 9.392-13.656a1.002 1.002 0 0 1 1.781.275l22.781 74.922a1 1 0 0 1-.814 1.281l-78.578 11.388a.973.973 0 0 1-.143.011zm-123.774-94.151c24.318 14.087 133.075 77.09 133.419 77.31a1 1 0 0 1 .315 1.361l-8.005 13.186 75.327-10.917-21.839-71.822-8.739 12.705a1 1 0 0 1-1.323.3L161.95 175.406z"/></svg></g><g transform="translate(1268.3999999999999 2198.4) rotate(0.0 594.6 332.39999999999986) scale(1.4187426256282756 1.419660417569792)"><svg width="838.207" height="468.281" viewBox="0 0 838.207 468.281"><path d="M701.628 56.471 665.623 35.31l.238-34.087 40.18 22.134a16.905 16.905 0 0 1 8.199 14.672l-.122 11.384c-.067 6.37-6.997 10.286-12.49 7.058z" fill="#fff"/><path d="M705.827 58.628a9.27 9.27 0 0 1-4.706-1.295l-36.004-21.161a.998.998 0 0 1-.493-.869l.238-34.087a.998.998 0 0 1 1.482-.869l40.18 22.134c5.457 3.277 8.784 9.232 8.716 15.559l-.122 11.383c-.036 3.353-1.8 6.34-4.72 7.989a9.27 9.27 0 0 1-4.571 1.216zm-39.2-23.888 35.508 20.868c2.268 1.333 4.99 1.356 7.281.062s3.675-3.638 3.704-6.27l.122-11.383a15.963 15.963 0 0 0-7.714-13.804L666.85 2.908z"/><path d="m709.065 56.954-47.486 27.55-7.629-33.089 50.538-28.992a17.733 17.733 0 0 1 9.657 13.362l.145 1.013-.248 13.651-.071.275a9.822 9.822 0 0 1-4.906 6.23z" fill="#adc4cb"/><path d="M661.579 85.504a.998.998 0 0 1-.974-.776l-7.629-33.089a.999.999 0 0 1 .477-1.092l50.538-28.992a.998.998 0 0 1 .943-.028 18.736 18.736 0 0 1 10.202 14.116l.145 1.013a.949.949 0 0 1 .01.16l-.248 13.651a1.003 1.003 0 0 1-.031.231l-.071.275a10.848 10.848 0 0 1-5.389 6.855l-47.47 27.541a1.015 1.015 0 0 1-.503.135zm-6.488-33.591 7.158 31.046 46.314-26.87.033-.019a8.842 8.842 0 0 0 4.407-5.596l.042-.162.244-13.454-.133-.933a16.731 16.731 0 0 0-8.643-12.365z"/><path d="M652.065 85.286 616.06 64.125l.238-34.087 40.18 22.134a16.905 16.905 0 0 1 8.199 14.672l-.122 11.384c-.067 6.37-6.997 10.286-12.49 7.058z" fill="#fff"/><path d="M656.264 87.443a9.27 9.27 0 0 1-4.706-1.295l-36.005-21.161a.998.998 0 0 1-.493-.869l.239-34.087a.998.998 0 0 1 1.482-.869l40.18 22.134c5.457 3.276 8.784 9.231 8.717 15.558l-.122 11.384c-.036 3.353-1.8 6.339-4.719 7.989a9.28 9.28 0 0 1-4.573 1.216zm-3.692-3.019a7.217 7.217 0 0 0 7.281.062 7.216 7.216 0 0 0 3.703-6.269l.122-11.384a15.961 15.961 0 0 0-7.714-13.803l-38.677-21.306-.223 31.832z"/><path d="m700.237 36.41-25.945 15.183a18.586 18.586 0 0 1-18.956-.108l-39.037-21.447s3.335-3.332 4.665-4.148C632.309 18.926 665.921 1 665.921 1l34.412 18.67c6.335 3.806 6.282 13.007-.096 16.74z" fill="#fff"/><path d="M664.905 55.139c-3.491 0-6.981-.933-10.084-2.797l-39.003-21.428a1 1 0 0 1-.226-1.584c.35-.35 3.458-3.44 4.849-4.293C631.682 18.138 665.114.298 665.451.119a1 1 0 0 1 .947.003l34.412 18.67c3.319 1.993 5.265 5.454 5.243 9.282s-2.007 7.267-5.311 9.2l-25.945 15.183a19.585 19.585 0 0 1-9.892 2.682zM617.961 29.81l37.856 20.798a17.594 17.594 0 0 0 17.969.122l25.945-15.183a8.652 8.652 0 0 0 4.32-7.485 8.653 8.653 0 0 0-4.235-7.534l-33.9-18.392c-4.131 2.208-33.972 18.186-44.43 24.605-.752.462-2.375 1.962-3.525 3.069zm82.276 6.6h.01z"/><path d="M3.166 208.019s13.135 11.673 25.034 9.761c18.46-2.968 27.698-18.448 21.744-34.496-4.064-10.954-18.475-17.338-18.475-17.338z" fill="#fff"/><path d="M25.461 218.993c-11.312 0-22.452-9.776-22.959-10.227a1.001 1.001 0 0 1-.166-1.306l28.303-42.074a1 1 0 0 1 1.235-.356c.604.268 14.845 6.685 19.007 17.905 2.918 7.865 2.397 15.844-1.466 22.466-4.143 7.102-11.621 11.849-21.057 13.365-.962.156-1.931.227-2.897.227zM4.497 207.831c2.779 2.264 13.737 10.541 23.544 8.961 8.834-1.42 15.811-5.823 19.646-12.398 3.556-6.097 4.025-13.47 1.319-20.764-3.344-9.015-14.222-14.936-17.19-16.411z"/><path d="M1.264 206.473s10.972 9.658 22.872 7.745c18.46-2.968 26.945-18.771 20.991-34.819-4.064-10.954-16.78-14.874-16.78-14.874s-1.741 0-4.127 3.607L3.166 200.321c-1.239 1.812-2.795 4.739-1.902 6.152z" fill="#fff"/><path d="M20.917 215.472c-10.806 0-19.894-7.879-20.313-8.249a1.003 1.003 0 0 1-.185-.216c-1.268-2.007.66-5.404 1.921-7.25l21.043-32.172c2.557-3.864 4.584-4.059 4.964-4.059.1 0 .199.015.295.044.538.166 13.235 4.196 17.423 15.482 3.033 8.176 2.528 16.409-1.423 23.182-4.027 6.903-11.253 11.51-20.347 12.972a21.275 21.275 0 0 1-3.378.266zm-18.859-9.636c1.27 1.06 11.321 9.099 21.919 7.396 8.492-1.365 15.217-5.629 18.937-12.005 3.644-6.247 4.097-13.875 1.275-21.479-3.561-9.597-14.292-13.631-15.928-14.197-.328.107-1.559.642-3.207 3.133L4.003 200.868c-1.652 2.417-2.21 4.275-1.945 4.968z"/><path d="M44.824 208.608c-2.484-1.208-2.637-4.067-1.299-6.482 1.352-2.441 3.727-3.453 6.21-2.249 1.901.925 340.652 221.686 391.133 248.906a48.216 48.216 0 0 0 46.923-.638l336.104-193.243c2.986-1.717 3.311-4.57 3.312-5.718s-.319-4.003-3.304-5.725l-114.665-66.855c-10.412-5.808-15.371-14.249-15.08-25.759l1.985-58.648c.052-1.546.205-3.444.381-5.643.404-5.02 1.349-16.776-.556-19.701-3.7-5.683-6.453-6.28-6.48-6.285.287.055-3.889-1.103-3.889-5.074 0-4.493 4.333-4.898 4.333-4.898 1.233 0 7.721.521 14.416 10.801 3.482 5.349 3.031 14.921 2.144 25.96-.167 2.073-.311 3.864-.355 5.179l-1.983 58.605c-.195 7.713 2.807 12.743 10.039 16.778L828.92 234.81c5.186 2.991 8.291 8.372 8.287 14.382s-3.118 11.386-8.327 14.381L488.985 460.768a48.205 48.205 0 0 1-46.829.87c-51.99-27.649-396.877-252.808-397.332-253.03z" fill="#fff"/><path d="M464.796 468.323c-7.91 0-15.829-1.93-23.11-5.802-30.23-16.077-167.936-103.724-387.751-246.796a4895.219 4895.219 0 0 0-9.597-6.241c-1.194-.595-2.027-1.552-2.412-2.771-.481-1.523-.217-3.371.725-5.071 1.674-3.022 4.626-4.069 7.521-2.665.399.194 8.994 5.759 33.788 21.822 86.587 56.097 316.592 205.108 357.383 227.104 14.497 7.818 31.675 7.583 45.95-.624l336.104-193.243c2.534-1.457 2.809-3.878 2.81-4.852s-.271-3.396-2.803-4.857l-114.668-66.858c-10.777-6.011-15.877-14.731-15.576-26.648l1.985-58.657c.053-1.576.207-3.482.384-5.689.327-4.065 1.322-16.435-.397-19.075-3.299-5.067-5.744-5.822-5.861-5.855a.996.996 0 0 1-.25-.092c-2.782-1.122-4.42-3.338-4.42-5.958 0-4.274 3.428-5.724 5.24-5.894h.016c1.453 0 8.381.579 15.33 11.25 3.654 5.613 3.205 15.361 2.303 26.586-.166 2.073-.309 3.846-.352 5.132l-1.983 58.605c-.184 7.293 2.665 12.042 9.527 15.872l114.744 66.9c5.502 3.174 8.788 8.874 8.783 15.246-.004 6.372-3.305 12.072-8.829 15.247L489.487 461.633c-7.679 4.455-16.18 6.69-24.691 6.69zM47.651 200.363c-1.276 0-2.435.773-3.251 2.248-.677 1.222-.884 2.498-.567 3.499.224.709.705 1.247 1.429 1.599.101.049.101.049 9.764 6.339 219.768 143.042 357.42 230.657 387.6 246.707 14.502 7.712 31.645 7.394 45.858-.852l339.895-197.195c4.899-2.817 7.825-7.869 7.829-13.517s-2.907-10.701-7.786-13.515l-114.731-66.893c-7.484-4.175-10.738-9.627-10.535-17.667l1.983-58.614c.045-1.333.189-3.127.356-5.205.874-10.874 1.327-20.271-1.983-25.355-6.413-9.847-12.436-10.346-13.578-10.346-.253.032-3.333.453-3.333 3.898 0 2.583 2.239 3.74 3.202 4.117a.915.915 0 0 1 .046.02c.727.217 3.49 1.351 6.958 6.677 1.843 2.831 1.396 11.864.715 20.327-.175 2.182-.327 4.067-.378 5.596l-1.985 58.648c-.281 11.096 4.484 19.228 14.568 24.852l114.681 66.865c3.433 1.98 3.801 5.268 3.8 6.589s-.375 4.607-3.813 6.584L488.29 449.012c-14.881 8.555-32.786 8.799-47.896.651-40.862-22.033-270.917-171.077-357.522-227.185-19.845-12.857-32.955-21.351-33.608-21.719-.547-.265-1.09-.396-1.613-.396z"/></svg></g><g transform="translate(714.0 882.0) rotate(0.0 94.19999999999999 115.79999999999995) scale(1.7835335548550169 1.795641150885027)"><svg width="105.633" height="128.979" viewBox="0 0 105.633 128.979"><ellipse cx="52.817" cy="64.49" fill="#dbf301" rx="42.148" ry="70.266" transform="matrix(.84414084 -.53612149 .53612149 .84414084 -26.342 38.368)"/><path d="M75.461 128.945c-19.178.002-42.814-15.731-59.066-41.323C6.236 71.628.421 54.201.021 38.552-.383 22.716 4.798 10.563 14.609 4.331c20.082-12.755 53.563 3.858 74.63 37.026 10.158 15.994 15.974 33.421 16.373 49.07.404 15.836-4.776 27.989-14.588 34.221-4.59 2.915-9.883 4.296-15.563 4.297zM30.283 1.994c-5.341 0-10.3 1.294-14.602 4.026C6.486 11.86 1.634 23.395 2.02 38.501c.391 15.292 6.095 32.356 16.062 48.049 15.877 24.999 38.83 40.434 57.269 40.436 5.341 0 10.3-1.294 14.602-4.026 9.195-5.84 14.047-17.375 13.661-32.481-.391-15.292-6.095-32.356-16.062-48.049-15.877-25-38.831-40.436-57.269-40.436z"/><path d="M47.746 53.183a1 1 0 0 1-.982-1.194 17.45 17.45 0 0 0 .298-4.299c-.199-3.767-1.554-7.239-3.813-9.774-2.204-2.473-5.001-3.749-7.895-3.596-3.185.169-6.183 2.296-7.128 5.057a1 1 0 1 1-1.893-.648c1.219-3.558 4.885-6.192 8.915-6.406 3.479-.187 6.876 1.327 9.493 4.263 2.561 2.873 4.094 6.779 4.318 10.999a19.487 19.487 0 0 1-.333 4.792 1.002 1.002 0 0 1-.98.806zm32.135 18.701a1 1 0 0 1-.982-1.194c.275-1.395.376-2.841.298-4.298-.199-3.768-1.554-7.24-3.813-9.774-2.204-2.473-4.993-3.752-7.895-3.597-3.185.169-6.182 2.296-7.127 5.057a1 1 0 0 1-1.893-.648c1.218-3.558 4.884-6.193 8.914-6.406 3.491-.185 6.876 1.327 9.493 4.263 2.561 2.873 4.094 6.779 4.318 10.999a19.469 19.469 0 0 1-.333 4.792 1.002 1.002 0 0 1-.98.806zM70.61 96.37c-6.338 0-13.838-2.375-22.393-7.102-17.4-9.614-22.465-23.096-23.935-30.277l-.055-.263a1 1 0 0 1 1.956-.42l.059.282c1.401 6.844 6.245 19.702 22.942 28.928 13.685 7.561 22.195 7.492 26.932 6.105 5.129-1.504 7.038-4.805 7.238-5.176a1 1 0 0 1 1.759.951c-.394.729-2.651 4.448-8.436 6.144-1.885.552-3.91.828-6.068.828z"/></svg></g></svg>