<svg height="177.894" viewBox="0 0 177.894 177.894" width="177.894" xmlns="http://www.w3.org/2000/svg"><circle cx="88.947" cy="88.947" fill="#fff" r="85.947"/><g fill="#b153e0"><circle cx="88.947" cy="56.501" r="30.649"/><path d="m161.39 135.168c-16.769-21.071-42.633-34.582-71.655-34.582-29.528 0-55.785 13.985-72.522 35.689 15.38 23.264 41.758 38.619 71.734 38.619 30.447 0 57.175-15.846 72.443-39.726z"/><path d="m88.947 177.894c-49.046 0-88.947-39.901-88.947-88.947s39.901-88.947 88.947-88.947 88.947 39.901 88.947 88.947-39.901 88.947-88.947 88.947zm0-171.894c-45.737 0-82.947 37.21-82.947 82.947s37.21 82.947 82.947 82.947 82.947-37.21 82.947-82.947-37.21-82.947-82.947-82.947z"/></g></svg>